<svg xmlns="http://www.w3.org/2000/svg" width="32" height="32" viewBox="0 0 32 32"><g transform="translate(-54 -300)"><g transform="translate(54 300)" fill="rgba(255,128,64,0.2)" stroke="#ff8040" stroke-width="1"><circle cx="16" cy="16" r="16" stroke="none"/><circle cx="16" cy="16" r="15.5" fill="none"/></g><path d="M9.843,6.593H5.963L9.312.7A.469.469,0,0,0,8.906,0H3.281a.468.468,0,0,0-.444.32L.024,8.789a.468.468,0,0,0,.444.617H4.445L1.912,15.346a.469.469,0,0,0,.781.5l7.5-8.469a.469.469,0,0,0-.35-.78Zm0,0" transform="translate(65.001 308)" fill="#ff8040"/></g></svg>