<svg id="Iconly_Bulk_Location" data-name="Iconly/Bulk/Location" xmlns="http://www.w3.org/2000/svg" width="14" height="20" viewBox="0 0 14 20">
  <g id="Location" transform="translate(0 0)">
    <path id="Path_34175" d="M7.042,17h0a.823.823,0,0,1-.39-.119,18.454,18.454,0,0,1-4.838-4.548A9.227,9.227,0,0,1,0,7.134,7.166,7.166,0,0,1,3.532.937a6.889,6.889,0,0,1,7.034.058,7.254,7.254,0,0,1,2.525,2.674A7.419,7.419,0,0,1,14,7.261a10.515,10.515,0,0,1-3.192,6.775,18.751,18.751,0,0,1-3.359,2.82A1.173,1.173,0,0,1,7.042,17ZM6.993,4.848a2.342,2.342,0,0,0-1.679.706,2.445,2.445,0,0,0-.519,2.641,2.369,2.369,0,0,0,2.2,1.5h.017a2.327,2.327,0,0,0,1.667-.7,2.455,2.455,0,0,0-.768-3.956A2.328,2.328,0,0,0,6.993,4.848Z" transform="translate(0)" />
    <ellipse id="Ellipse_743" cx="5" cy="1" rx="5" ry="1" transform="translate(2 18)"  opacity="0.4"/>
  </g>
</svg>
