<svg id="Filter_2" data-name="Filter 2" xmlns="http://www.w3.org/2000/svg" width="18" height="18" viewBox="0 0 18 18">
  <path id="Fill_1" data-name="Fill 1" d="M11.571,10.594,17.427,4.72A1.981,1.981,0,0,0,18,3.324V1.6C18,.52,17.142,0,16.084,0H1.916C.858,0,0,.52,0,1.6V3.355A1.983,1.983,0,0,0,.518,4.694L5.9,10.563a.537.537,0,0,0,.393.175l4.9.014a.528.528,0,0,0,.38-.158" transform="translate(0 0)"/>
  <path id="Fill_4" data-name="Fill 4" d="M0,0V6.6a.715.715,0,0,0,.319.6.681.681,0,0,0,.375.113.7.7,0,0,0,.289-.063L4.95,5.4a.71.71,0,0,0,.407-.646V0Z" transform="translate(6.056 10.686)" opacity="0.4"/>
</svg>
