<svg id="Iconly_Bulk_Shield_Done" data-name="Iconly/Bulk/Shield Done" xmlns="http://www.w3.org/2000/svg" width="24" height="24" viewBox="0 0 24 24">
  <g id="Shield_Done" data-name="Shield Done" transform="translate(3.5 2)">
    <path id="Fill_1" data-name="Fill 1" d="M8.586,20a.782.782,0,0,1-.359-.086l-3.6-1.864a8.453,8.453,0,0,1-2.445-1.816A8.243,8.243,0,0,1,.042,10.76L0,4.124A1.813,1.813,0,0,1,1.228,2.412L7.841.107A1.882,1.882,0,0,1,9.071.1l6.637,2.227a1.809,1.809,0,0,1,1.249,1.7L17,10.663a8.243,8.243,0,0,1-2.066,5.5A8.423,8.423,0,0,1,12.513,18L8.944,19.909A.764.764,0,0,1,8.586,20" transform="translate(0)" fill="#0e3360" opacity="0.4"/>
    <path id="Fill_4" data-name="Fill 4" d="M2.676,5.315A.764.764,0,0,1,2.141,5.1L.224,3.26A.722.722,0,0,1,.218,2.22a.77.77,0,0,1,1.068-.007L2.665,3.539,6.033.219A.77.77,0,0,1,7.1.212a.721.721,0,0,1,.007,1.039L3.209,5.1a.76.76,0,0,1-.533.219" transform="translate(5.143 7.006)" fill="#0e3360"/>
  </g>
</svg>
