<svg id="cases" xmlns="http://www.w3.org/2000/svg" width="32" height="32" viewBox="0 0 32 32">
  <g id="Caminho_216" data-name="Caminho 216" fill="rgba(0,123,255,0.38)">
    <path d="M 16 31.5 C 11.85980033874512 31.5 7.967410087585449 29.88772010803223 5.039840221405029 26.96015930175781 C 2.112279891967773 24.03259086608887 0.5 20.14019966125488 0.5 16 C 0.5 11.85980033874512 2.112279891967773 7.967410087585449 5.039840221405029 5.039840221405029 C 7.967410087585449 2.112279891967773 11.85980033874512 0.5 16 0.5 C 20.14019966125488 0.5 24.03259086608887 2.112279891967773 26.96015930175781 5.039840221405029 C 29.88772010803223 7.967410087585449 31.5 11.85980033874512 31.5 16 C 31.5 20.14019966125488 29.88772010803223 24.03259086608887 26.96015930175781 26.96015930175781 C 24.03259086608887 29.88772010803223 20.14019966125488 31.5 16 31.5 Z" stroke="none"/>
    <path d="M 16 1 C 11.99334907531738 1 8.226520538330078 2.560270309448242 5.393400192260742 5.393400192260742 C 2.560270309448242 8.226520538330078 1 11.99334907531738 1 16 C 1 20.00664901733398 2.560270309448242 23.77347946166992 5.393400192260742 26.60659980773926 C 8.226520538330078 29.43972969055176 11.99334907531738 31 16 31 C 20.00664901733398 31 23.77347946166992 29.43972969055176 26.60659980773926 26.60659980773926 C 29.43972969055176 23.77347946166992 31 20.00664901733398 31 16 C 31 11.99334907531738 29.43972969055176 8.226520538330078 26.60659980773926 5.393400192260742 C 23.77347946166992 2.560270309448242 20.00664901733398 1 16 1 M 16 0 C 24.8365592956543 0 32 7.163440704345703 32 16 C 32 24.8365592956543 24.8365592956543 32 16 32 C 7.163440704345703 32 0 24.8365592956543 0 16 C 0 7.163440704345703 7.163440704345703 0 16 0 Z" stroke="none" fill="#007bff"/>
  </g>
  <g id="Iconly_Bulk_Add_User" data-name="Iconly/Bulk/Add User" transform="translate(8 8)">
    <g id="Add_User" data-name="Add User">
      <path id="Fill_1" data-name="Fill 1" d="M4.038,1.653H3.086V.722a.712.712,0,1,0-1.423,0v.931H.712a.722.722,0,0,0,0,1.443h.951v.932a.712.712,0,1,0,1.423,0V3.1h.952a.722.722,0,0,0,0-1.443" transform="translate(11.083 3.958)" fill="#007bff"/>
      <path id="Fill_4" data-name="Fill 4" d="M5.938,0C2.735,0,0,.512,0,2.558S2.718,5.134,5.938,5.134c3.2,0,5.938-.512,5.938-2.558S9.157,0,5.938,0" transform="translate(0 9.908)" fill="#007bff"/>
      <path id="Fill_7" data-name="Fill 7" d="M3.929,7.96A3.94,3.94,0,0,0,7.858,3.98,3.929,3.929,0,1,0,0,3.98,3.94,3.94,0,0,0,3.929,7.96" transform="translate(2.009 0)" fill="#007bff" opacity="0.56"/>
    </g>
  </g>
</svg>
