<svg xmlns="http://www.w3.org/2000/svg" width="64.095" height="64.01" viewBox="0 0 64.095 64.01">
  <g id="Cough" transform="translate(0.095 0.05)">
    <path id="Caminho_48" data-name="Caminho 48" d="M44,39.82l2.08-.42A3.63,3.63,0,0,0,49,35.84a3.56,3.56,0,0,0-.68-2.11l-3.57-5A1.69,1.69,0,0,1,44.61,27,3.6,3.6,0,0,0,45,25.37V22.5a22.547,22.547,0,1,0-45.095,0l0,1A31.9,31.9,0,0,0,2.35,35.85l.07.15A29.85,29.85,0,0,1,4.69,49.15C4.37,55.17,4,63,4,63l2,.1s.37-7.78.69-13.79a31.76,31.76,0,0,0-2.43-14l-.06-.15a29.82,29.82,0,0,1-2.3-11.6v-1A20.55,20.55,0,0,1,43,22.5v2.87a1.63,1.63,0,0,1-.18.75,3.66,3.66,0,0,0,.3,3.77l3.58,5a1.57,1.57,0,0,1,.3.94,1.63,1.63,0,0,1-1.31,1.6L42.8,38a1,1,0,0,0-.8,1v2a1,1,0,0,0,.29.71.17.17,0,0,1-.12.29H40a3,3,0,0,0,0,6h1.81a.16.16,0,0,1,.15.09.15.15,0,0,1,0,.18l-.78,1.18A1,1,0,0,0,41,50v.86a5.13,5.13,0,0,1-6.55,4.94L28.27,54a1,1,0,0,0-1.27.96v8a1,1,0,0,0,2,0V56.33l4.9,1.4a7.24,7.24,0,0,0,2,.27A7.14,7.14,0,0,0,43,50.86V50.3l.62-.92A2.173,2.173,0,0,0,41.81,46H40a1,1,0,0,1,0-2h2.17A2.17,2.17,0,0,0,44,40.66Z"/>
    <path id="Caminho_49" data-name="Caminho 49" d="M48.06,42.34a1,1,0,0,0,1.28.6l11-4a1,1,0,1,0-.68-1.88l-11,4A1,1,0,0,0,48.06,42.34Z"/>
    <path id="Caminho_50" data-name="Caminho 50" d="M60.34,53.06l-11-4a1,1,0,1,0-.68,1.88l11,4a1,1,0,0,0,.68-1.88Z"/>
    <path id="Caminho_51" data-name="Caminho 51" d="M63,45H47a1,1,0,0,0,0,2H63a1,1,0,0,0,0-2Z"/>
  </g>
</svg>
