<svg id="Componente_601_1" data-name="Componente 601 – 1" xmlns="http://www.w3.org/2000/svg" width="32" height="32" viewBox="0 0 32 32">
  <g id="Caminho_216" data-name="Caminho 216" fill="rgba(255,179,0,0.38)">
    <path d="M 16 31.5 C 11.85980033874512 31.5 7.967410087585449 29.88772010803223 5.039840221405029 26.96015930175781 C 2.112279891967773 24.03259086608887 0.5 20.14019966125488 0.5 16 C 0.5 11.85980033874512 2.112279891967773 7.967410087585449 5.039840221405029 5.039840221405029 C 7.967410087585449 2.112279891967773 11.85980033874512 0.5 16 0.5 C 20.14019966125488 0.5 24.03259086608887 2.112279891967773 26.96015930175781 5.039840221405029 C 29.88772010803223 7.967410087585449 31.5 11.85980033874512 31.5 16 C 31.5 20.14019966125488 29.88772010803223 24.03259086608887 26.96015930175781 26.96015930175781 C 24.03259086608887 29.88772010803223 20.14019966125488 31.5 16 31.5 Z" stroke="none"/>
    <path d="M 16 1 C 11.99334907531738 1 8.226520538330078 2.560270309448242 5.393400192260742 5.393400192260742 C 2.560270309448242 8.226520538330078 1 11.99334907531738 1 16 C 1 20.00664901733398 2.560270309448242 23.77347946166992 5.393400192260742 26.60659980773926 C 8.226520538330078 29.43972969055176 11.99334907531738 31 16 31 C 20.00664901733398 31 23.77347946166992 29.43972969055176 26.60659980773926 26.60659980773926 C 29.43972969055176 23.77347946166992 31 20.00664901733398 31 16 C 31 11.99334907531738 29.43972969055176 8.226520538330078 26.60659980773926 5.393400192260742 C 23.77347946166992 2.560270309448242 20.00664901733398 1 16 1 M 16 0 C 24.8365592956543 0 32 7.163440704345703 32 16 C 32 24.8365592956543 24.8365592956543 32 16 32 C 7.163440704345703 32 0 24.8365592956543 0 16 C 0 7.163440704345703 7.163440704345703 0 16 0 Z" stroke="none" fill="#fb0"/>
  </g>
  <g id="Iconly_Bulk_Danger" data-name="Iconly/Bulk/Danger" transform="translate(9 8)">
    <path id="Fill_5" data-name="Fill 5" d="M2.042,13.625H2.013A2.121,2.121,0,0,1,.156,10.707L5.647,1.087a2.122,2.122,0,0,1,3.71.007l5.455,9.546A2.154,2.154,0,0,1,15,11.4a2.122,2.122,0,0,1-2.011,2.229H2.042Z" transform="translate(0 0)" fill="#fb0"/>
    <path id="Combined_Shape" data-name="Combined Shape" d="M0,5.343A.656.656,0,1,1,.656,6,.659.659,0,0,1,0,5.343ZM0,2.777V.656a.656.656,0,0,1,1.312,0V2.777A.656.656,0,1,1,0,2.777Z" transform="translate(6.844 4.609)" fill="#533d00"/>
  </g>
</svg>
