<svg xmlns="http://www.w3.org/2000/svg" width="64" height="64.05" viewBox="0 0 64 64.05">
  <g id="Fever" transform="translate(0 0.05)">
    <path id="Caminho_72" data-name="Caminho 72" d="M31,18H29.93a7.94,7.94,0,0,0-1.62-3.9l1.4-1.39a1,1,0,0,0-1.42-1.42l-1.39,1.4A7.94,7.94,0,0,0,23,11.07V10a1,1,0,0,0-2,0v1.07a7.94,7.94,0,0,0-3.9,1.62l-1.39-1.4a1,1,0,0,0-1.42,1.42l1.4,1.39A7.94,7.94,0,0,0,14.07,18H13a1,1,0,0,0,0,2h1.07a7.94,7.94,0,0,0,1.62,3.9l-1.4,1.39a1,1,0,1,0,1.42,1.42l1.39-1.4A7.94,7.94,0,0,0,21,26.93V28a1,1,0,0,0,2,0V26.93a7.94,7.94,0,0,0,3.9-1.62l1.39,1.4a1,1,0,1,0,1.42-1.42l-1.4-1.39A7.94,7.94,0,0,0,29.93,20H31a1,1,0,0,0,0-2Zm-3.09,2A6,6,0,0,1,23,24.91a1,1,0,0,0-2,0A6,6,0,0,1,16.09,20a1,1,0,0,0,0-2A6,6,0,0,1,21,13.09a1,1,0,0,0,2,0A6,6,0,0,1,27.91,18a1,1,0,1,0,0,2Z"/>
    <circle id="Elipse_26" data-name="Elipse 26" cx="1.5" cy="1.5" r="1.5" transform="translate(18 16)"/>
    <circle id="Elipse_27" data-name="Elipse 27" cx="1" cy="1" r="1" transform="translate(24 17)"/>
    <circle id="Elipse_28" data-name="Elipse 28" cx="1" cy="1" r="1" transform="translate(21 20)"/>
    <path id="Caminho_73" data-name="Caminho 73" d="M44.84,28.73A1.67,1.67,0,0,1,44.71,27a3.73,3.73,0,0,0,.39-1.64V22.5A22.55,22.55,0,1,0,0,22.5v1A31.73,31.73,0,0,0,2.45,35.85l.06.15A29.72,29.72,0,0,1,4.79,49.15C4.47,55.17,4.1,63,4.1,63l2,.1s.37-7.78.69-13.79a31.91,31.91,0,0,0-2.43-14l-.06-.15A29.66,29.66,0,0,1,2,23.47v-1a20.55,20.55,0,1,1,41.1,0v2.87a1.63,1.63,0,0,1-.18.75,3.64,3.64,0,0,0,.3,3.77l3.57,5a1.58,1.58,0,0,1,.31.94,1.64,1.64,0,0,1-1.31,1.6L42.9,38a1,1,0,0,0-.8,1v3a1,1,0,0,0,.16.55l.18.27a.75.75,0,0,1,0,.78.74.74,0,0,1-.67.4h-4.3a4.39,4.39,0,0,0-3.12,1.29,1,1,0,1,0,1.41,1.42A2.41,2.41,0,0,1,37.51,46h3.34a.74.74,0,0,1,.7.47.73.73,0,0,1-.16.82,1,1,0,0,0-.29.71v2.86A5.15,5.15,0,0,1,36,56a5.24,5.24,0,0,1-1.42-.2L28.37,54a1,1,0,0,0-1.27,1v8a1,1,0,0,0,2,0V56.33l4.9,1.4a7.15,7.15,0,0,0,9.1-6.87V48.37a2.71,2.71,0,0,0,.3-2.67,1,1,0,0,0-.07-.15,2.69,2.69,0,0,0,.91-1,2.77,2.77,0,0,0-.13-2.83v-1.9l2.08-.42a3.63,3.63,0,0,0,2.24-5.67Z"/>
    <path id="Caminho_74" data-name="Caminho 74" d="M58,28.28V11a1,1,0,0,0-2,0V28.28a2,2,0,1,0,2,0Z"/>
    <path id="Caminho_75" data-name="Caminho 75" d="M62,25.11V5A5,5,0,1,0,52,5V25.11a7,7,0,1,0,10,0ZM57,35a5,5,0,0,1-3.33-8.72,1,1,0,0,0,.33-.74V5a3,3,0,0,1,6,0V25.54a1,1,0,0,0,.33.74A5,5,0,0,1,57,35Z"/>
  </g>
</svg>
