<svg id="Hand_Wash" data-name="Hand Wash" xmlns="http://www.w3.org/2000/svg" width="64" height="64" viewBox="0 0 64 64">
  <path id="Caminho_86" data-name="Caminho 86" d="M63,59H57.73a1,1,0,0,0-.61.21A13.67,13.67,0,0,1,48.88,62H28.64A1.59,1.59,0,0,1,27,60.66a1.48,1.48,0,0,1,.38-1.17A1.51,1.51,0,0,1,28.5,59a5461.333,5461.333,0,0,1,.5,0H39a1,1,0,0,0,0-2H29a1,1,0,0,0-.25,0,1,1,0,0,0-.25,0H25.64A1.59,1.59,0,0,1,24,55.66a1.48,1.48,0,0,1,.38-1.17A1.51,1.51,0,0,1,25.5,54H38a1,1,0,0,0,0-2H22.64A1.59,1.59,0,0,1,21,50.66a1.48,1.48,0,0,1,.38-1.17A1.51,1.51,0,0,1,22.5,49H37a1,1,0,0,0,0-2H25.5a1.51,1.51,0,0,1-1.11-.49A1.48,1.48,0,0,1,24,45.34,1.59,1.59,0,0,1,25.64,44H46.26A1.025,1.025,0,0,0,47,42.29L42.08,37.4a3,3,0,0,1,0-4.24,1,1,0,0,1,1.43,0l6.8,6.55a1,1,0,0,0,.37.23l.92.31a8.17,8.17,0,0,1,5.36,6,1,1,0,0,0,1,.78H63a1,1,0,0,0,0-2H58.7a10.17,10.17,0,0,0-6.46-6.64l-.71-.24-6.62-6.38a3.07,3.07,0,0,0-4.25,0,5,5,0,0,0,0,7.07L43.85,42H25.64A3.61,3.61,0,0,0,22,45.14,3.47,3.47,0,0,0,22.34,47,3.49,3.49,0,0,0,19,50.86,3.61,3.61,0,0,0,22.34,54,3.51,3.51,0,0,0,22,55.86,3.61,3.61,0,0,0,25.34,59,3.51,3.51,0,0,0,25,60.86,3.61,3.61,0,0,0,28.64,64H48.88a15.67,15.67,0,0,0,9.18-3H63a1,1,0,0,0,0-2Z"/>
  <path id="Caminho_87" data-name="Caminho 87" d="M24.24,21A3,3,0,0,1,27,24v1a1,1,0,0,0,1,1h7a1,1,0,0,0,1-1V23.26A12.27,12.27,0,0,0,24.249,11,8.13,8.13,0,0,0,22,9.08V5a1,1,0,0,0-1-1H19V2h6a1,1,0,1,0,0-2H11a1,1,0,0,0,0,2h6V4H15a1,1,0,0,0-1,1V9.08a7.68,7.68,0,0,0-1.28.92H8A1,1,0,0,0,7,9H1a1,1,0,0,0-1,1V22a1,1,0,0,0,1,1H7a1,1,0,0,0,1-1h4.72A7.9,7.9,0,0,0,18,24a8,8,0,0,0,6.24-3ZM16,6h4V8.26A8.37,8.37,0,0,0,18,8a7.89,7.89,0,0,0-2,.26ZM2,21V11H6V21Zm20.92-1.57a6,6,0,0,1-9.11.86,1,1,0,0,0-.7-.29H8V12h5.11a1,1,0,0,0,.7-.29,6,6,0,0,1,9.11.86,1,1,0,0,0,.82.43A10.27,10.27,0,0,1,34,23.26V24H29a5,5,0,0,0-5-5h-.26A1,1,0,0,0,22.92,19.43Z"/>
  <path id="Caminho_88" data-name="Caminho 88" d="M30.24,27.35c-.4.47-3.91,4.65-3.91,8a4.67,4.67,0,0,0,9.34,0c0-3.33-3.51-7.51-3.91-8a1,1,0,0,0-1.52,0ZM31,38a2.68,2.68,0,0,1-2.67-2.67c0-1.73,1.55-4.21,2.67-5.72,1.12,1.51,2.67,4,2.67,5.72A2.68,2.68,0,0,1,31,38Z"/>
</svg>
