<svg id="Iconly_Bulk_Star" data-name="Iconly/Bulk/Star" xmlns="http://www.w3.org/2000/svg" width="24" height="24" viewBox="0 0 24 24">
  <g id="Star" transform="translate(2 2.5)">
    <path id="Fill_1" data-name="Fill 1" d="M10.976.614,13.2,5.088a1.112,1.112,0,0,0,.838.6l5,.728a1.121,1.121,0,0,1,.736.43,1.082,1.082,0,0,1,.21.815,1.112,1.112,0,0,1-.321.632l-3.624,3.513a1.056,1.056,0,0,0-.321.963l.892,4.939a1.115,1.115,0,0,1-.892,1.272,1.168,1.168,0,0,1-.714-.114l-4.461-2.324a1.169,1.169,0,0,0-1.053,0L5.033,18.866A1.143,1.143,0,0,1,3.5,18.419a1.131,1.131,0,0,1-.116-.7l.892-4.94a1.061,1.061,0,0,0-.321-.964L.332,8.3A1.084,1.084,0,0,1,.3,6.772l.029-.029a1.078,1.078,0,0,1,.642-.315l5-.729a1.114,1.114,0,0,0,.838-.6L8.96.614A1.107,1.107,0,0,1,9.977,0h.134a1.116,1.116,0,0,1,.865.613" opacity="0.4"/>
    <path id="Fill_4" data-name="Fill 4" d="M9.992,16.417a1.226,1.226,0,0,0-.552.151L5,18.887a1.158,1.158,0,0,1-1.5-.461,1.106,1.106,0,0,1-.116-.694L4.274,12.8a1.1,1.1,0,0,0-.321-.975L.328,8.318A1.093,1.093,0,0,1,.311,6.774l.017-.016A1.134,1.134,0,0,1,.96,6.441L5.965,5.7A1.083,1.083,0,0,0,6.8,5.1L8.978.563A1.106,1.106,0,0,1,10,0c-.008.3-.008,16.213-.008,16.415"/>
  </g>
</svg>
