<svg xmlns="http://www.w3.org/2000/svg" width="20" height="20" viewBox="0 0 20 20">
  <g id="IconCheck" transform="translate(-973 -699)">
    <path id="Fill_4" data-name="Fill 4" d="M3.249,6.5a.872.872,0,0,1-.619-.256L.257,3.868A.875.875,0,0,1,1.493,2.629L3.249,4.385,7.377.257A.875.875,0,0,1,8.613,1.495L3.868,6.24a.872.872,0,0,1-.619.256" transform="translate(979 706)" />
    <path id="Fill_1" data-name="Fill 1" d="M20,10A10,10,0,1,1,10,0,10.011,10.011,0,0,1,20,10" transform="translate(973 719) rotate(-90)"  opacity="0.4"/>
  </g>
</svg>
