<svg id="Iconly_Bulk_Scan" data-name="Iconly/Bulk/Scan" xmlns="http://www.w3.org/2000/svg" width="24" height="24" viewBox="0 0 24 24">
  <g id="Scan" transform="translate(1 3)">
    <path id="Combined_Shape" data-name="Combined Shape" d="M4.415,7.523a.279.279,0,0,1-.27-.269V6.008a2.269,2.269,0,0,1,2.27-2.265h5.523a2.26,2.26,0,0,1,2.271,2.265V7.254a.281.281,0,0,1-.274.269Zm12.416-1.76V3.906A2.44,2.44,0,0,0,14.37,1.493H12.777a.754.754,0,0,1-.761-.745A.755.755,0,0,1,12.777,0H14.37a3.948,3.948,0,0,1,3.983,3.906V5.763a.761.761,0,0,1-1.522,0ZM0,5.762V3.9A3.945,3.945,0,0,1,3.974,0H5.6a.754.754,0,0,1,.76.747.753.753,0,0,1-.76.746H3.975A2.436,2.436,0,0,0,1.523,3.9V5.762a.755.755,0,0,1-.761.747A.755.755,0,0,1,0,5.762Z" transform="translate(1.824 0)"  opacity="0.4"/>
    <path id="Fill_7" data-name="Fill 7" d="M21.239,0H.762A.755.755,0,0,0,0,.747a.754.754,0,0,0,.762.745H1.823V5.056A3.946,3.946,0,0,0,5.8,8.958H7.427a.747.747,0,1,0,0-1.493H5.8A2.436,2.436,0,0,1,3.346,5.056V1.492H5.969v.991A2.269,2.269,0,0,0,8.238,4.75h5.524a2.269,2.269,0,0,0,2.27-2.266V1.492h2.623v3.56a2.44,2.44,0,0,1-2.461,2.413H14.6a.747.747,0,1,0,0,1.493h1.593a3.949,3.949,0,0,0,3.983-3.907V1.492h1.062A.753.753,0,0,0,22,.747.754.754,0,0,0,21.239,0" transform="translate(0 9.041)"/>
  </g>
</svg>
