<svg id="Iconly_Bulk_Arrow_-_Right" data-name="Iconly/Bulk/Arrow - Right" xmlns="http://www.w3.org/2000/svg" width="24" height="24" viewBox="0 0 24 24">
  <g id="Arrow_-_Right" data-name="Arrow - Right" transform="translate(3 18) rotate(-90)">
    <path id="Fill_1" data-name="Fill 1" d="M.327,5.2,0,1.5a1.518,1.518,0,0,1,3.036,0L2.709,5.2a1.191,1.191,0,0,1-2.381,0" transform="translate(4.483 0)"  opacity="0.4"/>
    <path id="Fill_4" data-name="Fill 4" d="M4.87,9.79c-.058-.058-.305-.274-.51-.477A22.073,22.073,0,0,1,.336,3.422,4.828,4.828,0,0,1,0,2.223a2,2,0,0,1,.219-.91,1.886,1.886,0,0,1,.9-.808A9.79,9.79,0,0,1,2.188.244,23.636,23.636,0,0,1,5.993,0,27.291,27.291,0,0,1,9.681.216a8.26,8.26,0,0,1,1.327.347A1.815,1.815,0,0,1,12,2.165v.058a5.031,5.031,0,0,1-.408,1.343A22.044,22.044,0,0,1,7.626,9.327a5.693,5.693,0,0,1-.554.491,1.768,1.768,0,0,1-1.064.347A1.856,1.856,0,0,1,4.87,9.79" transform="translate(0 7.835)" />
  </g>
</svg>
