<svg id="Iconly_Bulk_Edit_Square" data-name="Iconly/Bulk/Edit Square" xmlns="http://www.w3.org/2000/svg" width="24" height="24" viewBox="0 0 24 24">
  <g id="Edit_Square" data-name="Edit Square" transform="translate(2 2)">
    <path id="Fill_1" data-name="Fill 1" d="M14.664,19.99H5.335A5.343,5.343,0,0,1,1.4,18.6,5.346,5.346,0,0,1,.01,14.665V5.335A5.345,5.345,0,0,1,1.4,1.4,5.347,5.347,0,0,1,5.335.01h9.329A5.338,5.338,0,0,1,18.6,1.4,5.372,5.372,0,0,1,19.99,5.335v9.33A5.35,5.35,0,0,1,18.6,18.6a5.347,5.347,0,0,1-3.937,1.389" opacity="0.4"/>
    <path id="Fill_4" data-name="Fill 4" d="M10.555,3.9,4,10.483A1.8,1.8,0,0,1,2.746,11H.458a.463.463,0,0,1-.331-.137A.457.457,0,0,1,0,10.532L.058,8.22A1.759,1.759,0,0,1,.574,7.01L5.219,2.356a.211.211,0,0,1,.292,0L7.14,3.979a.615.615,0,0,0,.428.176.643.643,0,0,0,.643-.644.661.661,0,0,0-.175-.449c-.029-.039-1.58-1.583-1.58-1.583a.26.26,0,0,1,0-.361L7.108.454a1.538,1.538,0,0,1,2.181,0l1.266,1.268a1.551,1.551,0,0,1,0,2.176" transform="translate(4.5 4.5)"/>
  </g>
</svg>
