<svg xmlns="http://www.w3.org/2000/svg" xmlns:xlink="http://www.w3.org/1999/xlink" width="530.973" height="552.009" viewBox="0 0 530.973 552.009">
  <defs>
    <linearGradient id="linear-gradient" x1="1.047" y1="0.769" x2="-0.175" y2="0.218" gradientUnits="objectBoundingBox">
      <stop offset="0" stop-color="#dbe2e4"/>
      <stop offset="1" stop-color="#f4f4f4"/>
    </linearGradient>
    <linearGradient id="linear-gradient-2" x1="0.909" y1="0.205" x2="0.233" y2="0.598" gradientUnits="objectBoundingBox">
      <stop offset="0" stop-color="#485563"/>
      <stop offset="1" stop-color="#29323c"/>
    </linearGradient>
    <linearGradient id="linear-gradient-3" x1="1.041" y1="-0.271" x2="0.025" y2="1" gradientUnits="objectBoundingBox">
      <stop offset="0" stop-color="#ffba90"/>
      <stop offset="1" stop-color="#eb9577"/>
    </linearGradient>
    <linearGradient id="linear-gradient-4" x1="1.135" y1="0.204" x2="0.228" y2="0.796" gradientUnits="objectBoundingBox">
      <stop offset="0" stop-color="#1e9dd7"/>
      <stop offset="1" stop-color="#075d98"/>
    </linearGradient>
    <linearGradient id="linear-gradient-5" x1="0.917" y1="0.432" x2="0.039" y2="0.816" gradientUnits="objectBoundingBox">
      <stop offset="0" stop-color="#075d98"/>
      <stop offset="1" stop-color="#1e9dd7"/>
    </linearGradient>
    <linearGradient id="linear-gradient-6" x1="0.888" y1="0.886" x2="0.088" y2="0.063" gradientUnits="objectBoundingBox">
      <stop offset="0" stop-color="#fff"/>
      <stop offset="1" stop-color="#f1f1f1"/>
    </linearGradient>
    <linearGradient id="linear-gradient-7" x1="0.888" y1="0.678" x2="0.088" y2="0.299" xlink:href="#linear-gradient-6"/>
    <linearGradient id="linear-gradient-8" x1="0.888" y1="0.687" x2="0.088" y2="0.288" xlink:href="#linear-gradient-6"/>
    <linearGradient id="linear-gradient-9" x1="0.888" y1="0.973" x2="0.088" y2="-0.035" xlink:href="#linear-gradient-6"/>
    <linearGradient id="linear-gradient-10" x1="0.888" y1="0.813" x2="0.088" y2="0.146" xlink:href="#linear-gradient-6"/>
    <linearGradient id="linear-gradient-11" x1="0.888" y1="1.026" x2="0.088" y2="-0.096" xlink:href="#linear-gradient-6"/>
    <linearGradient id="linear-gradient-13" x1="0.512" y1="1.026" x2="0.488" y2="-0.096" xlink:href="#linear-gradient-6"/>
  </defs>
  <g id="Page-1" transform="translate(-0.506 -4.989)">
    <g id="Covid-Copy" transform="translate(-761 -6619)">
      <g id="Handwashing-pana" transform="translate(761 6619)">
        <g id="background-simple--inject-197" transform="translate(44.2)">
          <path id="Path" d="M148.759,405.444c-38.168-2.665-76.44-15.327-105.3-40.495S-3.51,301.171.767,263.146s33.449-73.359,71.123-80.067c22.867-4.069,47.008,1.911,69.3-4.615,28.327-8.294,47.268-34.762,60.346-61.23s23-55.289,43.134-76.869c29.809-31.928,78.611-42,120.9-31.2C419.9,23.1,463.645,68.9,479.7,122.629s5.772,113.672-23,161.8S381.81,369.109,330.2,391.105" fill="url(#linear-gradient)"/>
        </g>
        <g id="Sink--inject-197" transform="translate(5.2 425.1)">
          <path id="Path-2" data-name="Path" d="M1.716,55.107C-.052,51.727,1.144,36.712,3.3,33.566a28,28,0,0,1,8.645-7.41C37.154,10.4,58.2,7.1,87.841,3.9A505.258,505.258,0,0,1,178.49,1.937c33.176,2.379,66.664-.6,96.473,13.988a28.262,28.262,0,0,1,11.8,10.335c2.3,3.744,1.378,12.09-1.131,20.085-4.628,14.69-6.851,34.411-44.018,44.915-41.795,11.8-38.9,40.638-38.9,40.638L28.275,130.416,26,116.207a110.5,110.5,0,0,0-17.082-42.9,52.3,52.3,0,0,1-7.8-20.293" fill="#ebebeb"/>
          <ellipse id="Oval" cx="117.702" cy="20.033" rx="117.702" ry="20.033" transform="translate(35.126 19.123)" fill="#e0e0e0"/>
        </g>
        <g id="Character--inject-197" transform="translate(83.2 63.7)">
          <path id="Path-3" data-name="Path" d="M236.3,361.4l-1.69,131.9L301,493.22,314.756,430.6l9.1,62.621h73.005S417.4,348.036,388.7,305.981Z" fill="url(#linear-gradient-2)"/>
          <g id="Group-9" transform="translate(78)">
            <path id="Path-4" data-name="Path" d="M117.833,92.937q7.017,16.636,11.6,19.106L97.193,172.9c-2.84-5.116-20.792-45.232-20.792-45.232s-20.155,6.188-29.481-12.431C42.389,106.2,34.566,86.76,27.7,69.169A38.536,38.536,0,1,1,99.6,41.389Q110.815,76.3,117.833,92.937Z" fill="#ffbe9d"/>
            <path id="Path-5" data-name="Path" d="M67.6,130.273s14.469-5.642,24.7-22.1c0,0,.91,19.162-22.035,27.859Z" opacity="0.429"/>
            <path id="Path-6" data-name="Path" d="M40.15,75.924c.689,2.542,2.415,3.662,3.89,2.524a4.48,4.48,0,0,0,1.586-2.68,8.407,8.407,0,0,0,0-3.852c-.689-2.542-2.415-3.662-3.89-2.524a4.449,4.449,0,0,0-1.591,2.677,8.373,8.373,0,0,0,0,3.855Z" transform="matrix(0.966, -0.259, 0.259, 0.966, -17.671, 13.619)" fill="#263238"/>
            <path id="Path-7" data-name="Path" d="M66.652,67.429c.646,2.252,2.254,3.239,3.626,2.226a3.928,3.928,0,0,0,1.483-2.379,7.1,7.1,0,0,0,0-3.426c-.643-2.259-2.251-3.254-3.626-2.243A3.981,3.981,0,0,0,66.656,64,7.159,7.159,0,0,0,66.652,67.429Z" transform="matrix(0.978, -0.208, 0.208, 0.978, -12.133, 15.823)" fill="#263238"/>
            <path id="Path-8" data-name="Path" d="M64.92,90.393c-.066-.154-9.956-22.9-10.31-22.871s0,7.183.851,15.925c.232,2.155.442,4.207.652,6.156a4.192,4.192,0,0,0,1.028,2.852,2.155,2.155,0,0,0,1.724.451,6.089,6.089,0,0,0,1.337-.4C63.13,91.357,64.986,90.557,64.92,90.393Z" fill="#263238" opacity="0.442"/>
            <path id="Path-9" data-name="Path" d="M74.807,88.339c-.041-.1-5.993-15.05-11.874-24.177-3.7-5.749-8.322-7.313-8.458-7.3-.354.033.136,16.439.987,25.854.232,2.321.442,4.531.652,6.63a4.729,4.729,0,0,0,1.028,3.072,2.044,2.044,0,0,0,1.724.486,5.768,5.768,0,0,0,1.337-.431C63.13,91.236,74.873,88.516,74.807,88.339Z" fill="#ffbe9d"/>
            <path id="Path-14" d="M86.89,62.372Q81.8,88.062,71.653,91.3c-10.15,3.241-23.151,8.85-26.114,8.85q-2.963,0-7.271-3.884,6.106,26.515,13.5,29.612c7.392,3.1,31.914,10.645,47.955-20.33q6.665-22.453,3.122-30.3t8.7-7.038q3.032-13.5.911-23.531c-2.12-10.035-9.609-15.113-9.609-19.056S98.109,8.085,86.89,6.555s-10.7-.016-17.076-2.127S56.152-2.5,49.1,1.6,38.4,14.354,31.542,11.116s-13.459-.377-15.814,2.572-7.852,9.144-5.1,14.342,1.314,8.844-1.694,8.844-12.74,12.58-7.315,20.4,16.239,11.742,23.451,5.1,5.055-23.451,14.546-23.451,19.415-.7,22.362-4.587S77.9,30.882,77.9,36.873s-5.386,12.049,0,16.224A43.519,43.519,0,0,1,86.89,62.372Z" fill-rule="evenodd" fill="url(#linear-gradient-3)"/>
            <path id="Path-9-2" data-name="Path-9" d="M75.846,99.888q3.046,1.736.466,6.25a12.058,12.058,0,0,1-8.026,5.833q-7.453.694-9.5-5.312-.645-1.667,3.87-2.812T75.846,99.888Z" fill="#6e3714" fill-rule="evenodd"/>
            <path id="Path-8-2" data-name="Path-8" d="M75.179,99.888q-13.627,3.351-15.535,4.167a1.841,1.841,0,0,0-.933.7c0,.772,11.841,2,17.68-4.037a8.093,8.093,0,0,0-.667-.547A3.584,3.584,0,0,0,75.179,99.888Z" fill="#fff" fill-rule="evenodd"/>
            <path id="Path-10" data-name="Path" d="M92.965,50.641c.254-.3,11.05-10.056,16.829,2.95s-8.442,16.155-8.63,15.79S92.965,50.641,92.965,50.641Z" fill="#ffbe9d"/>
          </g>
          <path id="Combined-Shape" d="M203.411,104.767a2.6,2.6,0,0,1,3.9.663q5.713,4.224,9.381,5.317c10.032,2.988,19.464,3.184,22.079,3.653,11.82,2.132,66.034,22.488,97.461,64.125,39.083,51.781,55.629,127.484,60.19,136.816a4.3,4.3,0,0,1-.429,4.485c-6.656,8.84-150.371,46.839-159.614,40.781h0l-1.3-28.912q-16.485-41.358-29.565-60.206a186.823,186.823,0,0,0-17.034-20.364l-.89,21.394a62.4,62.4,0,0,1-14.9,38.181l-.3.351A61.659,61.659,0,0,1,154.765,325L87.516,360.75,62.582,326.56q61.7-26.864,69.776-49.76c7.842-22.222-.771-55.613,2.3-80.787,3.189-26.11,17.967-43.69,20.833-48.455,2.423-4.029,2.457-11.1,2.457-11.1a218.008,218.008,0,0,1,15.271,17.993Q178.281,144.845,203.411,104.767Z" fill="url(#linear-gradient-4)"/>
          <path id="Path-11" data-name="Path" d="M220.194,137.8q2.993,115.665-15.483,147.376-19.277,33.086-97.773,47.013l7.123,30.187s59.177,1.221,107.277-13.9A89.115,89.115,0,0,0,283.4,270.66c1.529-18.951,14.463-67.454,3.581-93.82C272.983,142.923,232.987,133.119,220.194,137.8Z" fill="url(#linear-gradient-5)"/>
          <g id="Group" transform="translate(234 218.1)" opacity="0.287">
            <path id="Path-12" data-name="Path" d="M1.2,125.009c5.954,2.392,12.61-.273,18.46-2.912,0,0,20.93-8.45,31.525-37.7,4.9-13.559,9.243-27.443,9.243-41.86A142.558,142.558,0,0,0,53.3.014c-4.394,25.571.429,52.1-9.789,77.324a94.224,94.224,0,0,1-42.9,47.424" opacity="0.815"/>
          </g>
          <path id="Path-13" data-name="Path" d="M161.2,208l23.517,70.369s6.5-15.145,3.705-28.431Z" opacity="0.287"/>
          <path id="Path-14-2" data-name="Path" d="M16.393,400.4a6.643,6.643,0,0,0,8.788-.572,5.759,5.759,0,0,1,1.417,4.108,19.253,19.253,0,0,0,.247,4.42,3.653,3.653,0,0,0,2.964,2.925,3.458,3.458,0,0,0,3.081-1.95,10.244,10.244,0,0,0,.91-3.731l.9-7.41c.637,1.053,1.534,2.236,2.756,2.158,1.5-.091,2.158-1.937,2.236-3.445s.091-3.276,1.3-4.108c.312,1.131,2.054,1.3,2.912.455a4.5,4.5,0,0,0,1-3.289,7.644,7.644,0,0,1,.442-3.484l-12.155.845Z" fill="url(#linear-gradient-6)"/>
          <path id="Path-15" data-name="Path" d="M3.7,341.9a4.732,4.732,0,0,1,3.289-2c2.106-.247,5.486-.7,7.228-1.105,2.6-.611,16.7-7.332,19.656-8.658A36.985,36.985,0,0,1,45.9,328.2c1.937.208,15.9-.806,15.9-.806L83.9,348.27S75.218,371.579,65,376.61a211.67,211.67,0,0,0-20.5,11.869L36.543,390s-15.08,11.271-19.032,10.517-4.9-2.444-4.9-2.444-4.875,2.808-7.449.312,0-6.253,0-6.253-3.9-.455-4.407-2.275a7.878,7.878,0,0,1,1.976-7.163c2.288-2.6,17.979-19.643,21.32-21.931s5.33-6.5,6.1-8.983-1.521-6.084-5.785-4.108-9.1,3.068-12.493,2.47C6.851,349.284-.351,347.8,3.7,341.9Z" fill="#ffbe9d"/>
          <path id="Path-16" data-name="Path" d="M29.107,370.3a45.393,45.393,0,0,1-3.588,3.081c-2.236,1.872-5.278,4.5-8.5,7.553s-6.006,5.967-7.982,8.1a40.854,40.854,0,0,1-3.263,3.419,4.317,4.317,0,0,1,.715-1.053c.494-.663,1.3-1.573,2.2-2.691a111.247,111.247,0,0,1,7.878-8.268c3.237-3.068,6.344-5.655,8.658-7.436,1.157-.884,2.119-1.586,2.8-2.041a4.134,4.134,0,0,1,1.092-.663Z" fill="#eb996e"/>
          <path id="Path-17" data-name="Path" d="M37.947,375.557a5.019,5.019,0,0,1-1.014.845l-2.9,2.132c-2.457,1.781-5.85,4.238-9.5,7.085a67.758,67.758,0,0,0-8.853,7.8,25.544,25.544,0,0,0-2.73,4.03,3.419,3.419,0,0,1,.429-1.3,15,15,0,0,1,1.937-3.068,55.432,55.432,0,0,1,8.8-8.008c3.666-2.86,7.111-5.265,9.646-6.942,1.3-.845,2.3-1.508,3.016-1.95a5.291,5.291,0,0,1,1.17-.624Z" fill="#eb996e"/>
          <path id="Path-18" data-name="Path" d="M29.523,371.241a2.483,2.483,0,0,1-1.482,2.535,3.2,3.2,0,0,1-3-.156c-.624-.377-1.2-.962-1.924-.936s-1.43.78-2.2.663a1.482,1.482,0,0,1-1.079-1.755,3.666,3.666,0,0,1,1.586-1.976,5.6,5.6,0,0,1,4.03-1.17C27.9,368.68,29.289,370.084,29.523,371.241Z" fill="url(#linear-gradient-7)"/>
          <path id="Shape" d="M74.464,336.323a7.228,7.228,0,0,0-7.8-2.6,7.93,7.93,0,0,0-3.107-8.32c-2.678-1.664-6.838-.689-7.995,2.236a6.188,6.188,0,0,0-11.05,4.238s-5.525-4.446-9.451,1.2a15.86,15.86,0,0,0,8.892,2.6,8.151,8.151,0,0,0,5.382,7.41c5.4,1.9,8.021-1.17,8.021-1.17s1.04,7.5,5.551,6.89l10.92-3.978.624-.3a7.228,7.228,0,0,0,.013-8.2ZM61.62,325.351a.542.542,0,1,1-.546.546.546.546,0,0,1,.546-.546Zm-1.82,3.692a.542.542,0,1,1,.546-.546.546.546,0,0,1-.546.546Zm.078-1.612a1.111,1.111,0,1,0-.078,0Zm2.054,5.668a1,1,0,1,1,.988-.988.988.988,0,0,1-1.04.988Zm.767-2.678a2.089,2.089,0,1,0-.052,0Zm2.6,7.8a1,1,0,1,1,.988-1,.988.988,0,0,1-1.027.949Zm1.755-1.872a.387.387,0,1,0-.039-.052Zm2.3,2.288a1.008,1.008,0,1,0-.039-.052Zm1.859.871a.387.387,0,1,0-.039-.052Z" fill="url(#linear-gradient-8)"/>
          <path id="Shape-2" data-name="Shape" d="M63.388,369.733a4.108,4.108,0,0,0-3.354-1.04,12.572,12.572,0,0,0-3.445,1.053,5.044,5.044,0,0,0-9.62.1,5.434,5.434,0,0,0-4.1-.741,3.978,3.978,0,0,0-2.912,2.834,3.172,3.172,0,0,0,1.7,3.549,16.9,16.9,0,0,0,2.6.481c.845.208,1.729.884,1.651,1.755a3.432,3.432,0,0,1-.793,1.482,3.9,3.9,0,0,0,.806,4.966l-1.937,1.3c-.962,2.054.767,3.458,2.99,3.9a3.9,3.9,0,0,0,4.42-3.9,6.942,6.942,0,0,0,7.384-1.131,5.1,5.1,0,0,0,.182-7.072,7.449,7.449,0,0,0,4.485-2.6A3.9,3.9,0,0,0,63.388,369.733ZM56.459,381.94a.377.377,0,0,1,.39.377.39.39,0,1,1-.767,0,.377.377,0,0,1,.377-.377Zm-2.171-13.559a1.3,1.3,0,1,1-1.3,1.3A1.3,1.3,0,0,1,54.288,368.381ZM51.558,368a.507.507,0,0,1,.52.507.52.52,0,1,1-1.027,0A.507.507,0,0,1,51.558,368Zm-3.289,20.085a1.417,1.417,0,1,1,1.4-1.4,1.417,1.417,0,0,1-1.4,1.4Zm2.6-3.666a.767.767,0,0,1-.767-.767.78.78,0,0,1,.767-.767.767.767,0,0,1,.767.767.754.754,0,0,1-.728.767Zm.715-13a.884.884,0,1,1,.854-.4A.884.884,0,0,1,51.584,371.423Zm2.262,12.649a.614.614,0,1,1,.039.052Zm2.379.689a.767.767,0,0,1-.767-.767.78.78,0,0,1,.767-.767.767.767,0,0,1,.767.767.754.754,0,0,1-.728.806Zm1.482-.845a.39.39,0,0,1-.39-.377.4.4,0,0,1,.39-.39.39.39,0,0,1,.377.39.377.377,0,0,1-.338.429Zm1.4-12.441a.936.936,0,1,1,.923-.923.923.923,0,0,1-.884.975Zm1.378-1.4a.455.455,0,1,1,.378-.449A.455.455,0,0,1,60.489,370.071Z" fill="url(#linear-gradient-9)"/>
          <path id="Shape-3" data-name="Shape" d="M51.168,359.164a5.2,5.2,0,0,0-.715-3.159,1.82,1.82,0,0,0-2.795-.273,3.757,3.757,0,0,0-5.525-4.667,3.9,3.9,0,0,0-6.9,3.3,4.68,4.68,0,0,0-3.406,1.976,4.615,4.615,0,0,0-.624,3.9s-3.679.871-2.093,3.237,9.529,1.417,9.529,1.417-2.236,2.119,1.3,2.6a7.8,7.8,0,0,0,6.1-2.2s4.654-.247,5.694-1.092S51.168,359.164,51.168,359.164Zm-18.876-1.6a.26.26,0,1,1-.26.26.26.26,0,0,1,.26-.26Zm0,1.989a.489.489,0,1,1,.065,0Zm1.56-.7a7.952,7.952,0,1,1,.065-.052Zm10.582-3.471a.533.533,0,1,1,.533-.533A.533.533,0,0,1,44.434,355.381Zm-.377-2.6a1.608,1.608,0,1,0,.065.013Zm2.106,3a.728.728,0,0,1-.741-.741.741.741,0,0,1,.741-.741.754.754,0,0,1,.741.741.741.741,0,0,1-.676.754Z" fill="url(#linear-gradient-10)"/>
          <path id="Path-19" data-name="Path" d="M106.873,332.2,115.3,362.83s-18.408,14.69-19.5,15.6a6.773,6.773,0,0,1-3.77,1.768c-1.014-.091-2.691-1.3-3.9-1.6s-4.277-.676-5.109-.247a20.345,20.345,0,0,1-6.5,1.846c-2.86.247-8.736,4.524-11.7,2.678a6.383,6.383,0,0,1-3.172-4.381s5.824-2.34,6.682-3.9,5.2-8.177,5.72-9.685a38.753,38.753,0,0,0,.663-6.292s-8.138.078-9.724.676-3.029,1.742-6.045,2.834-8.814,2.015-9.815,0-1.3-4.381-.845-5.018c0,0,6.214-6.8,7.553-7.8s17.446-8.645,20.982-10.491,16.458-10.933,30.03-6.643" fill="#ffbe9d"/>
          <path id="Path-20" data-name="Path" d="M106.873,332.2l-.312-.065-.9-.2c-.4-.091-.884-.234-1.482-.338l-2.054-.286a30.745,30.745,0,0,0-13.273,1.846,51.466,51.466,0,0,0-8.671,4.03c-2.977,1.833-6.409,3.458-10,5.2s-7.436,3.627-11.414,5.655A24.9,24.9,0,0,0,55.9,349.7c-.832.728-1.638,1.573-2.444,2.4-1.625,1.69-3.25,3.445-4.888,5.2h0a3.419,3.419,0,0,0-.078,1.612,9.529,9.529,0,0,0,.4,1.781c.091.286.208.572.325.858s.13.273.195.416a3.247,3.247,0,0,0,.208.312,2.847,2.847,0,0,0,1.56.65,13.26,13.26,0,0,0,3.783-.117,20.5,20.5,0,0,0,3.8-.936,24.7,24.7,0,0,0,3.64-1.651c.6-.312,1.2-.65,1.833-.949a5.889,5.889,0,0,1,2.08-.559c2.782-.3,5.577-.364,8.424-.416h.351v.351a45.344,45.344,0,0,1-.481,5.512,5.2,5.2,0,0,1-.442,1.43c-.208.442-.442.858-.689,1.3-.468.832-.962,1.651-1.469,2.47l-1.9,3.055-.936,1.521-.455.767a3.511,3.511,0,0,1-.624.767,15.7,15.7,0,0,1-3.081,1.911c-1.053.533-2.119,1-3.2,1.443l.208-.338a6.058,6.058,0,0,0,2.236,3.588,3.666,3.666,0,0,0,1.846.923,6.5,6.5,0,0,0,2.106-.169,26.559,26.559,0,0,0,4.121-1.508,16.107,16.107,0,0,1,4.238-1.417,17.771,17.771,0,0,0,4.108-.936,19.37,19.37,0,0,0,1.937-.767,4.368,4.368,0,0,1,2.2-.325,12.831,12.831,0,0,1,4.173.741c.637.286,1.235.611,1.833.884a2.6,2.6,0,0,0,1.742.377,8.021,8.021,0,0,0,3.289-1.833L98.8,375.7l5.785-4.615,10.517-8.372-.078.247-6.071-22.451c-.689-2.6-1.235-4.68-1.612-6.11-.169-.676-.3-1.2-.4-1.586a3.041,3.041,0,0,1-.117-.546,2.2,2.2,0,0,1,.182.52l.468,1.573c.4,1.43.988,3.471,1.742,6.084,1.482,5.317,3.627,13,6.266,22.386v.156l-.117.1L104.9,371.5l-5.759,4.641-2.938,2.34a8.866,8.866,0,0,1-3.562,1.976,2.236,2.236,0,0,1-1.131,0,7.229,7.229,0,0,1-.975-.377c-.624-.286-1.222-.611-1.833-.871a12.286,12.286,0,0,0-3.9-.676,3.692,3.692,0,0,0-1.911.26,20.8,20.8,0,0,1-2,.806,18.643,18.643,0,0,1-4.264.962,16.093,16.093,0,0,0-4.03,1.378,27.677,27.677,0,0,1-4.225,1.56,7.463,7.463,0,0,1-2.353.182,4.5,4.5,0,0,1-2.171-1.066,6.5,6.5,0,0,1-2.483-4.043v-.247l.247-.091c1.053-.442,2.119-.923,3.146-1.443a14.507,14.507,0,0,0,2.925-1.807,2.431,2.431,0,0,0,.494-.6l.455-.78.949-1.521,1.9-3.055c.494-.819.988-1.638,1.456-2.457a7.124,7.124,0,0,0,1.053-2.483,45.5,45.5,0,0,0,.468-5.421l.338.351a76.688,76.688,0,0,0-8.346.4,5.46,5.46,0,0,0-1.885.494c-.6.286-1.2.611-1.794.936a27.389,27.389,0,0,1-3.731,1.69,22,22,0,0,1-3.9.949,13.689,13.689,0,0,1-3.991.1,3.289,3.289,0,0,1-1.911-.832,3.628,3.628,0,0,1-.533-.923,7.8,7.8,0,0,1-.338-.923,9.23,9.23,0,0,1-.429-1.885,3.6,3.6,0,0,1,.182-2.028h0c1.664-1.794,3.289-3.549,4.914-5.2.832-.832,1.625-1.664,2.509-2.444a23.4,23.4,0,0,1,3.016-1.69c4-2.015,7.8-3.9,11.44-5.6a95.588,95.588,0,0,0,10.01-5.2,51.561,51.561,0,0,1,8.775-4,30.433,30.433,0,0,1,13.416-1.677l2.067.325c.585.13,1.066.286,1.469.39l.884.26A.806.806,0,0,1,106.873,332.2Z" fill="#eb996e"/>
          <path id="Path-21" data-name="Path" d="M88.049,372.853a6.032,6.032,0,0,1-1.04,1.846,13.13,13.13,0,0,1-3.562,3.679,10.79,10.79,0,0,1-4.823,1.768,5.031,5.031,0,0,1-2.119,0,10.115,10.115,0,0,1,2.041-.442,12.78,12.78,0,0,0,4.524-1.859,16.718,16.718,0,0,0,3.562-3.406C87.451,373.412,87.971,372.8,88.049,372.853Z" fill="#eb996e"/>
          <path id="Path-22" data-name="Path" d="M72.137,355.069c.091-.156,1.027.325,1.625,1.417s.533,2.119.351,2.119-.416-.858-.949-1.794S72.02,355.225,72.137,355.069Z" fill="#eb996e"/>
          <circle id="Oval-2" data-name="Oval" cx="2.028" cy="2.028" r="2.028" transform="translate(41.938 399.737)" fill="url(#linear-gradient-11)"/>
          <path id="Path-23" data-name="Path" d="M18.291,374.166a1.911,1.911,0,1,1-1.9-1.754A1.911,1.911,0,0,1,18.291,374.166Z" fill="url(#linear-gradient-11)"/>
        </g>
        <g id="Tap--inject-197" transform="translate(0 353.6)">
          <path id="Path-24" data-name="Path" d="M118.976,70.655V22.945h7.969L126.8,60.06l.39,9.646" fill="url(#linear-gradient-13)"/>
          <path id="Path-25" data-name="Path" d="M121.017,46.254a97.045,97.045,0,0,1,0-16.185,97.045,97.045,0,0,1,0,16.185Z" fill="#263238"/>
          <path id="Path-26" data-name="Path" d="M124.189,50.96a89.869,89.869,0,0,1,0-15.6,89.87,89.87,0,0,1,0,15.6Z" fill="#263238"/>
          <path id="Path-27" data-name="Path" d="M69.888,76.921c-.091-.156-.143-.286-.117-.3a.728.728,0,0,1,.208.247c.091.143.143.273.117.286S69.979,77.064,69.888,76.921Z" fill="#263238"/>
          <path id="Path-28" data-name="Path" d="M40.885,17.134c0-.754-1.3-12.805,8.8-13.182S119.015-.338,123.695.429s7.631,2.457,7.631,8.086v2.509a16.081,16.081,0,0,1-3.263,11.921h-9.672s-4.459-6.136-3.458-11.557l-58.5,2.756a2.3,2.3,0,0,0-2.418,1.95c-.13.728,1.378,81.419,1.378,81.419h0a11.154,11.154,0,0,1-14.3,0l-.26-.221Z" fill="#e0e0e0"/>
          <path id="Path-29" data-name="Path" d="M22.932,77.584a5.369,5.369,0,0,1,7.228-2.327L43.8,82.1a9.685,9.685,0,0,1,4.719,8.268c0,4.94-5.707,3.8-5.707,3.8L25.142,85.982A5.408,5.408,0,0,1,22.1,79.924a11.31,11.31,0,0,1,.767-2.223Z" fill="#e0e0e0"/>
          <path id="Path-30" data-name="Path" d="M16.185,77.194c-1.547-.676.195-6.5.923-8.047l4.29-9.009a3.692,3.692,0,0,1,3.7-2.34,2.457,2.457,0,0,1,2.2,1.755,3.6,3.6,0,0,1-.221,2.717l-4.55,9.438c-.7,1.443-3.991,6.136-5.46,5.486Z" fill="#ebebeb"/>
          <path id="Path-31" data-name="Path" d="M18.486,73.372c1.573.6.1,6.5-.546,8.086l-3.9,9.191a3.692,3.692,0,0,1-3.6,2.509,2.418,2.418,0,0,1-2.21-1.651A3.575,3.575,0,0,1,8.32,88.79l4.1-9.646c.624-1.482,3.705-6.305,5.2-5.733Z" fill="#ebebeb"/>
          <path id="Path-32" data-name="Path" d="M23.816,83.291l-12.48-4.576,4.225-9.1,12.324,5.954C29.237,79.651,27.755,82.147,23.816,83.291Z" fill="#e0e0e0"/>
          <path id="Path-33" data-name="Path" d="M10.4,75.14,1.729,71.877A1.976,1.976,0,0,1,.507,69.992c.078-1.43.754-2.5,2.327-2.457L12.9,71.5" fill="#ebebeb"/>
          <path id="Path-34" data-name="Path" d="M15.327,69.823c1.976.728,2.821,3.38,1.885,5.915s-3.3,4-5.278,3.276S9.126,75.647,10.062,73.1,13.364,69.1,15.327,69.823Z" fill="#e0e0e0"/>
          <path id="Path-35" data-name="Path" d="M14.482,69.576a.986.986,0,0,1,.624,0,2.678,2.678,0,0,1,1.495.871A4.238,4.238,0,0,1,17.68,72.8a6.5,6.5,0,0,1-.377,3.094A5.2,5.2,0,0,1,15.444,78.4a4.5,4.5,0,0,1-2.418.845c-1.534,0-2.21-.819-2.132-.832a4.979,4.979,0,0,0,2.093.351,4.6,4.6,0,0,0,3.692-3.107,5.057,5.057,0,0,0-.442-4.875,3.627,3.627,0,0,0-1.755-1.209Z" fill="#263238" opacity="0.328"/>
          <path id="Path-36" data-name="Path" d="M27.547,75.062a3.121,3.121,0,0,1,1.183,1.4,4.966,4.966,0,0,1-.156,4.42A4.9,4.9,0,0,1,24.882,83.3c-1.17.117-1.846-.221-1.82-.286s.7,0,1.742-.182A4.641,4.641,0,0,0,28.288,76.7C27.95,75.647,27.469,75.14,27.547,75.062Z" fill="#263238" opacity="0.328"/>
          <path id="Path-37" data-name="Path" d="M18.2,75.764a2.6,2.6,0,0,1,3.38-1.4l7.8,3.367A3.159,3.159,0,0,1,31.5,80.821a2.106,2.106,0,0,1-1.43,1.885,3.016,3.016,0,0,1-2.327-.1L19.5,79.027a2.6,2.6,0,0,1-1.3-3.263Z" fill="#ebebeb"/>
          <path id="Path-38" data-name="Path" d="M22.243,82.849v0Z" fill="#263238"/>
          <path id="Path-39" data-name="Path" d="M39.806,80.5a2.4,2.4,0,0,1,1.027-.078,8.307,8.307,0,0,1,2.769.611,8.827,8.827,0,0,1,3.432,2.444,9.282,9.282,0,0,1,2.145,4.693,7.02,7.02,0,0,1-.988,5.07,4.03,4.03,0,0,1-1.833,1.456,4.1,4.1,0,0,1-2.015.221,8.047,8.047,0,0,1-2.678-.9c-.6-.3-.9-.507-.871-.546a3.358,3.358,0,0,1,.975.312,9.594,9.594,0,0,0,2.6.65,3.419,3.419,0,0,0,3.276-1.547,6.5,6.5,0,0,0,.832-4.628,8.866,8.866,0,0,0-5.1-6.786A14.833,14.833,0,0,0,39.806,80.5Z" fill="#263238" opacity="0.381"/>
        </g>
      </g>
    </g>
  </g>
</svg>
