<svg xmlns="http://www.w3.org/2000/svg" xmlns:xlink="http://www.w3.org/1999/xlink" width="64.076" height="64.076" viewBox="0 0 64.076 64.076">
  <defs>
    <linearGradient id="linear-gradient" x1="0.5" y1="1" x2="0.5" gradientUnits="objectBoundingBox">
      <stop offset="0" stop-color="#da5466"/>
      <stop offset="1" stop-color="#f4929c"/>
    </linearGradient>
  </defs>
  <g id="Corona_Virus" data-name="Corona Virus" transform="translate(0.013 0.013)">
    <circle id="Elipse_202" data-name="Elipse 202" cx="2" cy="2" r="2" transform="translate(6.62 16.5)" fill="url(#linear-gradient)"/>
    <circle id="Elipse_203" data-name="Elipse 203" cx="20" cy="20" r="20" transform="translate(12 12)" fill="#ff4b63"/>
    <path id="Caminho_236" data-name="Caminho 236" d="M52,32a19.93,19.93,0,0,1-9.07,16.74,16.611,16.611,0,0,1-1.73,1,19.93,19.93,0,0,1-18.4,0,16.61,16.61,0,0,1-1.73-1A19.93,19.93,0,0,1,12,32a18.861,18.861,0,0,1,.1-2A20,20,0,0,0,22.89,45.81a16.478,16.478,0,0,0,1.54.7,20,20,0,0,0,15.14,0,16.481,16.481,0,0,0,1.54-.7A20,20,0,0,0,51.9,30,18.86,18.86,0,0,1,52,32Z" fill="#cf4055"/>
    <circle id="Elipse_204" data-name="Elipse 204" cx="3" cy="3" r="3" transform="translate(29 1)" fill="url(#linear-gradient)"/>
    <circle id="Elipse_205" data-name="Elipse 205" cx="3" cy="3" r="3" transform="translate(29 57)" fill="url(#linear-gradient)"/>
    <circle id="Elipse_206" data-name="Elipse 206" cx="3" cy="3" r="3" transform="translate(1 29)" fill="url(#linear-gradient)"/>
    <circle id="Elipse_207" data-name="Elipse 207" cx="3" cy="3" r="3" transform="translate(57 29)" fill="url(#linear-gradient)"/>
    <circle id="Elipse_209" data-name="Elipse 209" cx="2" cy="2" r="2" transform="translate(16.5 6.62)" fill="url(#linear-gradient)"/>
    <circle id="Elipse_210" data-name="Elipse 210" cx="3" cy="3" r="3" transform="translate(29 57)" fill="url(#linear-gradient)"/>
    <circle id="Elipse_211" data-name="Elipse 211" cx="2" cy="2" r="2" transform="translate(43.5 53.38)" fill="url(#linear-gradient)"/>
    <circle id="Elipse_212" data-name="Elipse 212" cx="2" cy="2" r="2" transform="translate(16.5 53.38)" fill="url(#linear-gradient)"/>
    <circle id="Elipse_213" data-name="Elipse 213" cx="2" cy="2" r="2" transform="translate(43.5 6.62)" fill="url(#linear-gradient)"/>
    <circle id="Elipse_214" data-name="Elipse 214" cx="2" cy="2" r="2" transform="translate(6.62 43.5)" fill="url(#linear-gradient)"/>
    <circle id="Elipse_215" data-name="Elipse 215" cx="2" cy="2" r="2" transform="translate(6.62 43.5)" fill="url(#linear-gradient)"/>
    <circle id="Elipse_216" data-name="Elipse 216" cx="2" cy="2" r="2" transform="translate(53.38 16.5)" fill="url(#linear-gradient)"/>
    <circle id="Elipse_217" data-name="Elipse 217" cx="2" cy="2" r="2" transform="translate(53.38 16.5)" fill="url(#linear-gradient)"/>
    <circle id="Elipse_218" data-name="Elipse 218" cx="2" cy="2" r="2" transform="translate(53.38 43.5)" fill="url(#linear-gradient)"/>
    <circle id="Elipse_219" data-name="Elipse 219" cx="2" cy="2" r="2" transform="translate(53.38 43.5)" fill="url(#linear-gradient)"/>
    <circle id="Elipse_220" data-name="Elipse 220" cx="2" cy="2" r="2" transform="translate(6.62 16.5)" fill="url(#linear-gradient)"/>
    <path id="Caminho_242" data-name="Caminho 242" d="M3.5,0A3.5,3.5,0,1,1,0,3.5,3.5,3.5,0,0,1,3.5,0Z" transform="translate(25 22)" fill="#fbf8f8"/>
    <path id="Caminho_244" data-name="Caminho 244" d="M3,0A3,3,0,1,1,0,3,3,3,0,0,1,3,0Z" transform="translate(33 37)" fill="#fff"/>
    <circle id="Elipse_223" data-name="Elipse 223" cx="2.5" cy="2.5" r="2.5" transform="translate(38 25)" fill="#fdfbfb"/>
    <path id="Caminho_243" data-name="Caminho 243" d="M2,0A2,2,0,1,1,0,2,2,2,0,0,1,2,0Z" transform="translate(21 34)" fill="#fff"/>
    <circle id="Elipse_225" data-name="Elipse 225" cx="2" cy="2" r="2" transform="translate(16.5 6.62)" fill="url(#linear-gradient)"/>
    <circle id="Elipse_226" data-name="Elipse 226" cx="2" cy="2" r="2" transform="translate(43.5 6.62)" fill="url(#linear-gradient)"/>
    <circle id="Elipse_227" data-name="Elipse 227" cx="3" cy="3" r="3" transform="translate(57 29)" fill="url(#linear-gradient)"/>
    <circle id="Elipse_228" data-name="Elipse 228" cx="2" cy="2" r="2" transform="translate(43.5 53.38)" fill="url(#linear-gradient)"/>
    <circle id="Elipse_229" data-name="Elipse 229" cx="2" cy="2" r="2" transform="translate(16.5 53.38)" fill="url(#linear-gradient)"/>
    <circle id="Elipse_230" data-name="Elipse 230" cx="3" cy="3" r="3" transform="translate(1 29)" fill="url(#linear-gradient)"/>
    <path id="Caminho_237" data-name="Caminho 237" d="M60,28a4,4,0,0,0-3.86,3H53a20.91,20.91,0,0,0-2.3-8.62l2.8-1.61a2.97,2.97,0,1,0-1-3.05,3.1,3.1,0,0,0,0,1.32l-2.8,1.61a21,21,0,0,0-6.3-6.3l1.6-2.8a3.33,3.33,0,0,0,.54.07,3.47,3.47,0,0,0,.78-.1,3,3,0,1,0-3.05-1l-1.62,2.79A20.83,20.83,0,0,0,33,11.05V7.86a4,4,0,1,0-2,0v3.19a20.83,20.83,0,0,0-8.61,2.3l-1.62-2.79a3,3,0,1,0-3.05,1,3.47,3.47,0,0,0,.78.1,3.33,3.33,0,0,0,.54-.07l1.62,2.8a21,21,0,0,0-6.3,6.3L11.56,19a3.1,3.1,0,0,0,0-1.32,3.038,3.038,0,1,0-.97,3.05l2.8,1.61A20.91,20.91,0,0,0,11.05,31H7.86a4,4,0,1,0,0,2h3.19a20.91,20.91,0,0,0,2.3,8.62l-2.79,1.61a3,3,0,1,0,1,3.05,3.1,3.1,0,0,0,0-1.32l2.8-1.61a21,21,0,0,0,6.3,6.3L19,52.44a3.1,3.1,0,0,0-1.32,0,3,3,0,1,0,3.05,1l1.62-2.79A20.83,20.83,0,0,0,31,53v3.19a4,4,0,1,0,2,0V53a20.83,20.83,0,0,0,8.61-2.3l1.62,2.79a3,3,0,1,0,3.05-1,3.1,3.1,0,0,0-1.32,0L43.34,49.7a21,21,0,0,0,6.3-6.3l2.8,1.6a3.1,3.1,0,0,0,0,1.32,3,3,0,1,0,1-3.05l-2.79-1.61A20.91,20.91,0,0,0,53,33h3.19A4,4,0,1,0,60,28Zm-5.58-9.76a1,1,0,1,1,.1.76A1,1,0,0,1,54.42,18.24ZM44.63,8.12A1,1,0,1,1,45,9.48,1,1,0,0,1,44.63,8.12ZM18.24,9.58a1,1,0,1,1,.76-.1h0A1,1,0,0,1,18.24,9.58ZM8.12,19.37A1,1,0,1,1,9.48,19,1,1,0,0,1,8.12,19.37ZM9.58,45.76a1,1,0,1,1-.1-.76A1,1,0,0,1,9.58,45.76Zm9.79,10.12a1,1,0,1,1-1.13-1.46.78.78,0,0,1,.26,0,1,1,0,0,1,.87,1.5Zm26.39-1.46a1,1,0,1,1-.76.1h0a1,1,0,0,1,.5-.14.78.78,0,0,1,.26.04Zm9.62-9.92a1,1,0,1,1-.86.5,1,1,0,0,1,.86-.5ZM30,4a2,2,0,1,1,2,2A2,2,0,0,1,30,4ZM4,34a2,2,0,1,1,2-2A2,2,0,0,1,4,34ZM34,60a2,2,0,1,1-2-2A2,2,0,0,1,34,60Zm8.34-12.08-1-1.7a1,1,0,1,0-1.74,1l1,1.69a18.78,18.78,0,0,1-17.22,0l1-1.69a1,1,0,0,0-1.74-1l-1,1.7A19,19,0,0,1,13.05,33H15a1,1,0,0,0,0-2H13.05a19,19,0,0,1,8.61-14.92l1,1.7a1,1,0,0,0,1.74-1l-1-1.69a18.78,18.78,0,0,1,17.22,0l-1,1.69a1.008,1.008,0,0,0,1.75,1l1-1.7A19,19,0,0,1,51,31H49a1,1,0,0,0,0,2h2a19,19,0,0,1-8.66,14.92ZM60,34a2,2,0,1,1,2-2A2,2,0,0,1,60,34Z" fill="#0e3360"/>
    <path id="Caminho_238" data-name="Caminho 238" d="M28.5,21A4.5,4.5,0,1,0,33,25.5,4.5,4.5,0,0,0,28.5,21Zm0,7A2.5,2.5,0,1,1,31,25.5,2.5,2.5,0,0,1,28.5,28Z" fill="#0e3360"/>
    <path id="Caminho_239" data-name="Caminho 239" d="M36,36a4,4,0,1,0,4,4A4,4,0,0,0,36,36Zm0,6a2,2,0,1,1,2-2A2,2,0,0,1,36,42Z" fill="#0e3360"/>
    <path id="Caminho_240" data-name="Caminho 240" d="M40.5,24A3.5,3.5,0,1,0,44,27.5,3.5,3.5,0,0,0,40.5,24Zm0,5A1.5,1.5,0,1,1,42,27.5,1.5,1.5,0,0,1,40.5,29Z" fill="#0e3360"/>
    <path id="Caminho_241" data-name="Caminho 241" d="M23,33a3,3,0,1,0,3,3A3,3,0,0,0,23,33Zm0,4a1,1,0,1,1,1-1A1,1,0,0,1,23,37Z" fill="#0e3360"/>
  </g>
</svg>
