<svg xmlns="http://www.w3.org/2000/svg" xmlns:xlink="http://www.w3.org/1999/xlink" width="543.928" height="495.286" viewBox="0 0 543.928 495.286">
  <defs>
    <linearGradient id="linear-gradient" x1="1.047" y1="0.788" x2="-0.175" y2="0.197" gradientUnits="objectBoundingBox">
      <stop offset="0" stop-color="#dbe2e4"/>
      <stop offset="1" stop-color="#f4f4f4"/>
    </linearGradient>
    <linearGradient id="linear-gradient-2" x1="1.135" y1="0.344" x2="0.228" y2="0.656" gradientUnits="objectBoundingBox">
      <stop offset="0" stop-color="#1e9dd7"/>
      <stop offset="1" stop-color="#075d98"/>
    </linearGradient>
    <linearGradient id="linear-gradient-3" x1="1.525" y1="-0.222" x2="0" y2="0.701" gradientUnits="objectBoundingBox">
      <stop offset="0" stop-color="#62345f"/>
      <stop offset="1" stop-color="#251323"/>
    </linearGradient>
    <linearGradient id="linear-gradient-4" x1="1.394" y1="-0.108" y2="0.727" xlink:href="#linear-gradient-3"/>
  </defs>
  <g id="Page-1" transform="translate(-0.663 -25.052)">
    <g id="Covid-Copy" transform="translate(-128 -3222)">
      <g id="medical-personal-copy" transform="translate(128 3222)">
        <g id="Person-with-medical-mask-pana">
          <g id="background-simple--inject-198" transform="translate(0 24.7)">
            <path id="Path" d="M95.888,387.478c35.984,25.506,70.824,40.3,113.75,50.4s86.762,23.1,130.494,17.758c46.176-5.642,83.668-5.538,134.628-44.6,36.907-28.314,62.4-84.227,61.932-130.754A118.105,118.105,0,0,0,409.357,163.709c-21.177,1.664-42.341,9.009-63.206,5.109-27.3-5.1-47.5-28.236-61.568-52.156s-16.991-67.067-37.9-85.319c-40.17-35.1-112.983-39.78-150.8-17.108C54.834,38.935,14.677,85.813,4.81,132.665,4.81,132.665-28.9,299,95.888,387.478Z" fill="url(#linear-gradient)"/>
          </g>
          <g id="Character--inject-198" transform="translate(17.9 106.6)">
            <path id="Path-2" data-name="Path" d="M469.49,149.32l11.422-13.971A119.488,119.488,0,0,0,481.6,123.1c.02-8.221-.669-17.881-1.369-19.777-.159-.459,6.754-2.161,9.393,2.9a53.791,53.791,0,0,1,4.957,14.928c.164,1.01.1,1.994.962,2.53a3.468,3.468,0,0,0,2.883.359,117.581,117.581,0,0,1,16.036-3.921c3.128-.363,6.652,2.645,7.335,4.9.517,1.7.609,6.017,1.578,7.963.129.251.249.494.351.736.67,1.612,2.011,6.361,2.593,8.2a11.279,11.279,0,0,1,.3,4.135q-1.17,5.148-.877,6.259c.323,1.7-3.811,6.427-3.811,6.427l-20.953,8.029-7.381,7.106Z" fill="#b78876"/>
            <path id="Combined-Shape" d="M233.013,136.578a78.7,78.7,0,0,1,10.725,1.3,125.593,125.593,0,0,1,55.783,22.958q58.749,47.5,79.335,45.4,36.54-3.731,91.628-57.723l27.123,26.358q-20.874,35.516-34.1,52.438-9.693,12.4-34.651,35.541-55.422,47.325-133,4.287a53.276,53.276,0,0,1-6.686,14.681q-5.973,29.659-4.552,51.635,1.8,27.836,17.849,80.288h-163.8c-17.992-.572-1.638-47.45-4.472-47.45q4.472-41,4.472-62.685,0-15.69-18.265-57.422Q78.5,255.781,78.5,281.834t41.912,43.452l-14.523,36.387q-66.447-16.21-82.522-32.851c-29.7-30.741-24.931-71.076-17.52-84.921,26-48.575,87.937-87.823,132.258-98.041a402.143,402.143,0,0,1,39.312-9.776C211.94,135.59,214.514,135.707,233.013,136.578Z" fill="url(#linear-gradient-2)"/>
            <path id="Path-3" data-name="Path" d="M269.751,208.247a3.082,3.082,0,0,1,.7.416c.429.3,1.118.715,1.911,1.3a55.109,55.109,0,0,1,6.5,5.668,81.12,81.12,0,0,1,15.7,23.569A36.491,36.491,0,0,1,298,254.5a42.055,42.055,0,0,1-2.028,12.623,64,64,0,0,1-3.12,8.034l-1.053,2.093a4.367,4.367,0,0,1-.4.715,3.342,3.342,0,0,1,.286-.767c.234-.559.546-1.3.923-2.145a78.385,78.385,0,0,0,2.912-8.06,43.615,43.615,0,0,0,1.859-12.493,36.4,36.4,0,0,0-3.458-14.976,85.02,85.02,0,0,0-15.418-23.53,64.229,64.229,0,0,0-6.318-5.785c-.78-.65-1.43-1.092-1.833-1.443A3.9,3.9,0,0,1,269.751,208.247Z" fill="#263238"/>
            <g id="Group" transform="translate(178.4 266.5)" opacity="0.3">
              <path id="Path-4" data-name="Path" d="M51.649.442c-5.2,13.689-19.344,19.851-32.5,20.722H18.4A52,52,0,0,0,.676,23.4,28.132,28.132,0,0,0,51.649.494Z"/>
            </g>
            <g id="Group-2" data-name="Group" transform="translate(112.1 296.4)" opacity="0.3">
              <path id="Path-5" data-name="Path" d="M15.6,3.9c4.231,11.252,10.213,24.482,14.444,35.734,3.711,9.892,9.381,20.711,13.092,30.566l1.63-.111C51.91,47.164,39.772,19.838,15.6,3.9Z" transform="translate(25.212 -11.015) rotate(33)"/>
            </g>
            <g id="Group-3" data-name="Group" transform="translate(278.5 214.2)" opacity="0.3">
              <path id="Path-6" data-name="Path" d="M33.55,38.306C26.888,20.653,15.189,7,.9.2,8.936,15.109,18.019,33.107,18.936,52.431L30.913,61.3C34.643,56.657,35.8,44.292,33.55,38.306Z"/>
            </g>
            <path id="Path-7" data-name="Path" d="M251.9,90.934c1.572-14.183-.194-37.223-2.279-56.042-1.834-16.932-13.924-37.246-30.6-34.67L167.285,16.016a9.94,9.94,0,0,0-8.363,10.5l10.916,124.829a8.306,8.306,0,0,0,1.561,4.2,31.6,31.6,0,0,0,30.764,13.067c20.327-2.657,24.885-15.816,25.819-20.015a8.416,8.416,0,0,0,.205-2.14c-.513-16.184-.809-22.523-.8-22.408S248.741,119.449,251.9,90.934Z" fill="#b78876"/>
            <path id="Path-8" data-name="Path" d="M240.794,52.753c.115,2.931-1.478,5.457-3.6,5.7a3.037,3.037,0,0,1-2.809-1.079,5.894,5.894,0,0,1-1.383-3.544c-.121-2.925,1.469-5.448,3.584-5.685a3.031,3.031,0,0,1,2.813,1.066A5.882,5.882,0,0,1,240.794,52.753Z" fill="#263238"/>
            <path id="Path-9" data-name="Path" d="M204.393,54.062c.122,2.922-1.468,5.447-3.584,5.692a3.036,3.036,0,0,1-2.817-1.07,5.875,5.875,0,0,1-1.387-3.545c-.115-2.919,1.471-5.438,3.584-5.692a3.036,3.036,0,0,1,2.817,1.07A5.875,5.875,0,0,1,204.393,54.062Z" fill="#263238"/>
            <path id="Path-10" data-name="Path" d="M224.6,79.2c0-.209-3.689-30.93-3.266-31.1s4.477,7.936,9.033,18.121c1.142,2.513,2.158,4.905,3.152,7.2a5.349,5.349,0,0,1,.7,3.726,2.418,2.418,0,0,1-1.565,1.466,6.954,6.954,0,0,1-1.667.309C227.067,79.286,224.623,79.407,224.6,79.2Z" fill="#263238" opacity="0.431"/>
            <path id="Path-11" data-name="Path" d="M222.765,80.5c0-.088-12.288-3.2-13.051-9.528a41.721,41.721,0,0,1,.888-11.7c1.573-5.714,8.542-9.806,8.716-9.871.446-.165,4.724,7.936,9.532,18.121,1.205,2.513,2.278,4.905,3.326,7.2a5.116,5.116,0,0,1,.735,3.726,2.5,2.5,0,0,1-1.651,1.466,7.7,7.7,0,0,1-1.759.309C225.367,80.586,222.789,80.707,222.765,80.5Z" fill="#b78876"/>
            <path id="Path-12" data-name="Path" d="M227.464,123.794A75.156,75.156,0,0,1,188.8,115.7s10.562,18.927,39,15.086Z" opacity="0.324"/>
            <path id="Path-13" data-name="Path" d="M180.572,72.456,173.2,88.476s12.442,20.137,22.094,26.946a43.257,43.257,0,0,0,39.176,5.75s20.815-7.613,19.245-43.6c0,0-14.07-5.187-23.036-5.992s-28.9,4.6-36.467,3.634a106.429,106.429,0,0,1-13.64-2.76Z" fill="#f5f5f5"/>
            <path id="Path-14" data-name="Path" d="M181.4,73.489a93.25,93.25,0,0,1-9.5-5.889,95.018,95.018,0,0,1-9.1-6.5,93.249,93.249,0,0,1,9.5,5.889,95.017,95.017,0,0,1,9.1,6.5Z" fill="#263238"/>
            <path id="Path-15" data-name="Path" d="M174.565,88.467a26.364,26.364,0,0,1-5.85.923,26.715,26.715,0,0,1-5.915.26,26.793,26.793,0,0,1,5.85-.936,26.2,26.2,0,0,1,5.915-.247Z" fill="#263238"/>
            <path id="Path-16" data-name="Path" d="M254.515,97.24a3.8,3.8,0,0,1-.793.364c-.533.221-1.3.546-2.327.936a60.685,60.685,0,0,1-8.9,2.392,62.725,62.725,0,0,1-13.663,1.04A63.7,63.7,0,0,1,212.3,99.19a61.477,61.477,0,0,1-8.112-3.159,75.647,75.647,0,0,1-7.085-3.9c-4.394-2.7-8.177-5.395-11.375-7.579s-5.837-3.9-7.7-5.057l-2.132-1.3a3.367,3.367,0,0,1-.728-.494,4.64,4.64,0,0,1,.793.364c.507.26,1.3.65,2.21,1.2,1.885,1.066,4.576,2.73,7.8,4.875s7.046,4.8,11.427,7.449c2.2,1.3,4.55,2.6,7.059,3.835a62.076,62.076,0,0,0,8.034,3.107,64.22,64.22,0,0,0,29.9,1.924,68.393,68.393,0,0,0,8.9-2.184l2.366-.806a4.6,4.6,0,0,1,.845-.221Z" fill="#e0e0e0"/>
            <path id="Path-17" data-name="Path" d="M250.706,84.745c-6.779-2.217-13.628-4.411-20.733-5.03s-13.9.315-20.838.759-14.688,0-21.187-2.474H186.2a90.7,90.7,0,0,0,64.541,7.6.481.481,0,0,0,.454-.315C251.242,85.1,250.939,84.827,250.706,84.745Z" fill="#e0e0e0"/>
            <path id="Path-18" data-name="Path" d="M181,89.7c6.085,3.3,12.054,6.911,18.722,8.888a122.752,122.752,0,0,0,41.058,5.186c1.073,0,2.495.176,2.611,1.176s-.968,1.45-1.889,1.7a39.162,39.162,0,0,1-9.326,1.187,78.686,78.686,0,0,1-27.465-3.8,59.6,59.6,0,0,1-23.315-14.1" fill="#e0e0e0"/>
            <path id="Path-19" data-name="Path" d="M118.938,328.822q.234.429,14.887,3.224,15.811,10.915,19.581,16.74c7.165,11.071,5.148,22.42,1.582,28.11-8.164,13.026-14.265,11.014-14.265,11.014q-12.823.015-16.138-3.357-8.157-8.3-17.96-25.325Z" fill="#b78876"/>
          </g>
        </g>
        <circle id="Oval" cx="32.5" cy="32.5" r="32.5" transform="translate(122.2 49.4)" fill="url(#linear-gradient-3)"/>
        <path id="Path-2-2" data-name="Path-2" d="M244.238,115.233Q219.881,154.8,192.25,153.5q-12.381,6.5-12.381,14.438c0,.576,2.329,25.8,2.4,26.984q.274,4.3,1.375,15.677-12.59-.885-16.445-2.438c-8.106-3.265-15.517-10.285-17.19-12.826-8.881-13.495-14.451-52.05-3.747-80.1C156.329,88.862,186.4,75.3,191.187,72.94c4.355-2.144,50.373-13.484,86.685,33.511,5.256,6.8,9.2,27.785.046,43q-3.918,6.508-8.332,9.158-5.729-18.333-10.121-25.848T244.238,115.233Z" fill-rule="evenodd" fill="url(#linear-gradient-4)"/>
        <path id="Path-20" data-name="Path" d="M182.266,168.485c-.443-.187-17.72-5.06-17.152,11.964S183.3,193.424,183.3,192.93,182.266,168.485,182.266,168.485Z" fill="#b78876"/>
        <ellipse id="Oval-2" data-name="Oval" cx="1.3" cy="5.2" rx="1.3" ry="5.2" transform="translate(174.2 189.8)" fill="#d6007a"/>
      </g>
    </g>
  </g>
</svg>
