<svg xmlns="http://www.w3.org/2000/svg" width="54.008" height="64" viewBox="0 0 54.008 64">
  <g id="Patient" transform="translate(-4.996)">
    <path id="Caminho_165" data-name="Caminho 165" d="M36,40H28a1,1,0,0,0,0,2h8a1,1,0,0,0,0-2Z" />
    <path id="Caminho_166" data-name="Caminho 166" d="M36,44H28a1,1,0,0,0,0,2h8a1,1,0,0,0,0-2Z" />
    <ellipse id="Elipse_61" data-name="Elipse 61" cx="1.5" cy="2" rx="1.5" ry="2" transform="translate(23 27)" />
    <ellipse id="Elipse_62" data-name="Elipse 62" cx="1.5" cy="2" rx="1.5" ry="2" transform="translate(38 27)" />
    <path id="Caminho_167" data-name="Caminho 167" d="M58.94,62.65a13.41,13.41,0,0,0-8.71-8.09A7,7,0,0,0,53,49V35a5,5,0,0,0,0-8V15A15,15,0,0,0,38,0H28a11.07,11.07,0,0,0-8.5,4A9,9,0,0,0,11,13V27a5,5,0,0,0,0,8V49a7,7,0,0,0,2.76,5.56,13.42,13.42,0,0,0-8.7,8.09,1,1,0,0,0,1.88.7A11.37,11.37,0,0,1,17.54,56h3.53c.61,4.49,5.28,8,10.93,8s10.32-3.51,10.93-8h3.53a11.36,11.36,0,0,1,10.6,7.35,1,1,0,1,0,1.88-.7ZM50,34H49V28h1a3,3,0,1,1,0,6Zm-3,0a14.92,14.92,0,0,1-3,9,10.54,10.54,0,0,0-1.54-6c1.87-.82,3.42-3,4.54-5.13ZM37,55c0,1.63-2.29,3-5,3s-5-1.37-5-3V50.25a17.21,17.21,0,0,0,3.68.68c.44,0,.88.07,1.32.07a8.345,8.345,0,0,0,1.32-.07A17.21,17.21,0,0,0,37,50.25ZM47,26.83c-1.13,3.35-3.72,8.51-6,8.51h0C39,33.77,36,33,32,33s-7,.77-8.94,2.34h0c-2.37,0-4.94-5.16-6-8.5v-.35a9.14,9.14,0,0,0,1.37-1.13C20.68,23,21,20.63,21,18a8.19,8.19,0,0,0,5.47,2H39.12a6.9,6.9,0,0,1,6.21,3.86A7.58,7.58,0,0,0,47,26.06ZM33.1,48.94c-.37,0-.73.06-1.1.06a6.763,6.763,0,0,1-1.1-.06C26.63,48.56,22,46.06,22,43c0-4.16,1.21-8,10-8s10,3.84,10,8C42,46.06,37.37,48.56,33.1,48.94ZM17,31.93C18.11,34,19.65,36.2,21.53,37A10.59,10.59,0,0,0,20,43a14.92,14.92,0,0,1-3-9ZM13,13a7,7,0,0,1,7-7,1,1,0,0,0,.8-.4A9.05,9.05,0,0,1,28,2H38A13,13,0,0,1,51,15V25.91A5.44,5.44,0,0,1,47.12,23a8.87,8.87,0,0,0-8-5H26.47a6.22,6.22,0,0,1-5.58-3.45A1,1,0,0,0,19,15v1.47c0,3.21.09,5.33-2.05,7.48a7,7,0,0,1-4,2Zm1,15h1v6H14a3,3,0,1,1,0-6ZM13,49V35.9a5.47,5.47,0,0,0,1,.1h1.13A17,17,0,0,0,25,49.47V54H18A5,5,0,0,1,13,49ZM32,62c-4.52,0-8.27-2.61-8.9-6h2c.63,2.31,3.42,4,6.86,4s6.23-1.69,6.86-4h2C40.27,59.39,36.53,62,32,62Zm7-8V49.47A17,17,0,0,0,48.87,36H50a5.47,5.47,0,0,0,1-.1V49a5,5,0,0,1-5,5Z" />
    <path id="Caminho_168" data-name="Caminho 168" d="M21.12,24.46a1,1,0,0,0,1.42,1.42,2.75,2.75,0,0,1,3.9,0,1,1,0,1,0,1.41-1.42,4.77,4.77,0,0,0-6.73,0Z" />
    <path id="Caminho_169" data-name="Caminho 169" d="M36.15,24.46a1,1,0,0,0,1.41,1.42,2.75,2.75,0,0,1,3.9,0,1,1,0,1,0,1.42-1.42,4.77,4.77,0,0,0-6.73,0Z" />
  </g>
</svg>
