<svg id="Iconly_Bulk_Work" data-name="Iconly/Bulk/Work" xmlns="http://www.w3.org/2000/svg" width="24" height="24" viewBox="0 0 24 24">
  <g id="Work" transform="translate(2 2)">
    <path id="Fill_1" data-name="Fill 1" d="M0,0C.05,2.338.19,6.337.21,6.778A4.651,4.651,0,0,0,1.2,9.346,3.689,3.689,0,0,0,4.292,10.71c1.856.01,3.9.01,5.889.01s3.931,0,5.566-.01a3.733,3.733,0,0,0,3.089-1.364,4.514,4.514,0,0,0,.974-2.568c.02-.371.12-4.712.18-6.778Z" transform="translate(0 9.078)" opacity="0.4"/>
    <path id="Fill_4" data-name="Fill 4" d="M0,.75V2.044a.75.75,0,0,0,1.5,0V.75A.75.75,0,0,0,0,.75" transform="translate(9.245 12.634)"/>
    <path id="Fill_6" data-name="Fill 6" d="M12.473,13.117a.749.749,0,0,1-.727-.564A1.8,1.8,0,0,0,9.99,11.2a1.826,1.826,0,0,0-1.779,1.357.754.754,0,0,1-.726.552.783.783,0,0,1-.1-.007,17.159,17.159,0,0,1-7.047-2.62A.747.747,0,0,1,0,9.855V6.389A3.817,3.817,0,0,1,3.817,2.581H5.784A2.959,2.959,0,0,1,8.7,0h2.582a2.957,2.957,0,0,1,2.92,2.581h1.977A3.812,3.812,0,0,1,19.99,6.389V9.855a.752.752,0,0,1-.336.626,17.143,17.143,0,0,1-7.078,2.629A.8.8,0,0,1,12.473,13.117ZM8.7,1.5A1.46,1.46,0,0,0,7.3,2.581h5.387a1.46,1.46,0,0,0-1.4-1.081Z" transform="translate(0 0)"/>
  </g>
</svg>
