<svg xmlns="http://www.w3.org/2000/svg" width="32" height="32" viewBox="0 0 32 32"><g transform="translate(-164 -300)"><g transform="translate(164 300)" fill="rgba(33,207,85,0.2)"><path d="M 16 31.5 C 11.85980033874512 31.5 7.967410087585449 29.88772010803223 5.039840221405029 26.96015930175781 C 2.112279891967773 24.03259086608887 0.5 20.14019966125488 0.5 16 C 0.5 11.85980033874512 2.112279891967773 7.967410087585449 5.039840221405029 5.039840221405029 C 7.967410087585449 2.112279891967773 11.85980033874512 0.5 16 0.5 C 20.14019966125488 0.5 24.03259086608887 2.112279891967773 26.96015930175781 5.039840221405029 C 29.88772010803223 7.967410087585449 31.5 11.85980033874512 31.5 16 C 31.5 20.14019966125488 29.88772010803223 24.03259086608887 26.96015930175781 26.96015930175781 C 24.03259086608887 29.88772010803223 20.14019966125488 31.5 16 31.5 Z" stroke="none"/><path d="M 16 1 C 11.99334907531738 1 8.226520538330078 2.560270309448242 5.393400192260742 5.393400192260742 C 2.560270309448242 8.226520538330078 1 11.99334907531738 1 16 C 1 20.00664901733398 2.560270309448242 23.77347946166992 5.393400192260742 26.60659980773926 C 8.226520538330078 29.43972969055176 11.99334907531738 31 16 31 C 20.00664901733398 31 23.77347946166992 29.43972969055176 26.60659980773926 26.60659980773926 C 29.43972969055176 23.77347946166992 31 20.00664901733398 31 16 C 31 11.99334907531738 29.43972969055176 8.226520538330078 26.60659980773926 5.393400192260742 C 23.77347946166992 2.560270309448242 20.00664901733398 1 16 1 M 16 0 C 24.8365592956543 0 32 7.163440704345703 32 16 C 32 24.8365592956543 24.8365592956543 32 16 32 C 7.163440704345703 32 0 24.8365592956543 0 16 C 0 7.163440704345703 7.163440704345703 0 16 0 Z" stroke="none" fill="#21cf55"/></g><path d="M13.12,1.241A3.832,3.832,0,0,0,10.27,0,3.585,3.585,0,0,0,8.031.773a4.581,4.581,0,0,0-.905.945A4.578,4.578,0,0,0,6.22.773,3.584,3.584,0,0,0,3.981,0a3.832,3.832,0,0,0-2.85,1.241A4.454,4.454,0,0,0,0,4.283,5.3,5.3,0,0,0,1.414,7.754a30.138,30.138,0,0,0,3.538,3.321c.49.418,1.046.891,1.623,1.4a.837.837,0,0,0,1.1,0c.577-.5,1.133-.978,1.623-1.4a30.121,30.121,0,0,0,3.538-3.321A5.3,5.3,0,0,0,14.25,4.282a4.454,4.454,0,0,0-1.13-3.042Zm0,0" transform="translate(173 310)" fill="#21cf55"/></g></svg>