<svg xmlns="http://www.w3.org/2000/svg" xmlns:xlink="http://www.w3.org/1999/xlink" width="478.831" height="495.101" viewBox="0 0 478.831 495.101">
  <defs>
    <linearGradient id="linear-gradient" x1="1.047" y1="0.222" x2="-0.175" y2="0.792" gradientUnits="objectBoundingBox">
      <stop offset="0" stop-color="#dbe2e4"/>
      <stop offset="1" stop-color="#f4f4f4"/>
    </linearGradient>
    <linearGradient id="linear-gradient-2" x1="1.135" y1="0.831" x2="0.228" y2="0.169" gradientUnits="objectBoundingBox">
      <stop offset="0" stop-color="#1e9dd7"/>
      <stop offset="1" stop-color="#075d98"/>
    </linearGradient>
    <linearGradient id="linear-gradient-3" x1="0.682" y1="0.132" x2="0.355" y2="0.776" gradientUnits="objectBoundingBox">
      <stop offset="0" stop-color="#a1c4fd"/>
      <stop offset="1" stop-color="#c2e9fb"/>
    </linearGradient>
    <linearGradient id="linear-gradient-4" x1="0.647" y1="0.132" x2="0.382" y2="0.776" xlink:href="#linear-gradient-3"/>
    <linearGradient id="linear-gradient-5" x1="0.647" y1="0.132" x2="0.383" y2="0.776" xlink:href="#linear-gradient-3"/>
    <linearGradient id="linear-gradient-6" y1="0.36" x2="1.126" y2="0.617" gradientUnits="objectBoundingBox">
      <stop offset="0" stop-color="#09203f"/>
      <stop offset="1" stop-color="#537895"/>
    </linearGradient>
    <linearGradient id="linear-gradient-7" x1="0.585" y1="0.46" x2="0.059" y2="0.568" gradientUnits="objectBoundingBox">
      <stop offset="0" stop-color="#29323c"/>
      <stop offset="1" stop-color="#485563"/>
    </linearGradient>
    <linearGradient id="linear-gradient-8" x1="0.651" y1="1" x2="0.435" y2="0" xlink:href="#linear-gradient-2"/>
    <linearGradient id="linear-gradient-9" x1="0.644" y1="1" x2="0.438" y2="0" xlink:href="#linear-gradient-2"/>
  </defs>
  <g id="Page-1" transform="translate(-58.981)">
    <g id="Covid-Copy" transform="translate(-149 -7401)">
      <g id="Person-with-a-cold-pana" transform="translate(717 7401) rotate(180)">
        <g id="background-simple--inject-181" transform="translate(29.9 -1)">
          <path id="Path" d="M469.495-134.772c-15.028,55.8-56.615,105.157-111.28,123.864s-120.9,3.224-157.469-41.6c-26.78-32.8-37.245-78.2-69.667-105.43s-81.458-31.2-109.434-63.076C5.72-239.084-.832-264.2.442-288.3s9.776-47.4,20.969-68.718C29.5-372.464,39.4-387.531,53.716-397.489S130-402,151.424-402.39l175.227-.325c24.557-.936,65.2,15.6,84.331,30.992s34.4,46.072,45.682,67.912C483.184-252.5,484.523-190.568,469.495-134.772Z" fill="url(#linear-gradient)"/>
        </g>
        <g id="Character--inject-181" transform="translate(60.8)">
          <path id="Path-2" data-name="Path" d="M411.542-396.877c-10.01,2.86-13.936-2.509-13.936-2.509s3.2,19.227-7.046,66.638-45.89,92.018-52.91,105c-6.76,12.506-28.342,57.692-32,84.719-1.736,13.137-8.119,28.67-19.693,35.124A262.078,262.078,0,0,1,258.337-95c1.391.845-10.231,18.9-20.644,18.915-9.451,0-58.344,18.2-86.645-10.4-2.072-2.113-7.478-11.285-13.349-20.583-5.181-8.2-10.722-16.508-14.653-20.146C114.661-134.979,83.76-215.527,71.5-236.6c-5.592-9.612-16.077-35.385-29.635-56.114C25.7-317.43.048-336.478,1.652-355.81c2.784-33.556,19.5-56.589,19.5-56.589l400.92.208C421.4-404.4,416.586-398.32,411.542-396.877Z" fill="url(#linear-gradient-2)"/>
          <g id="Group" transform="translate(227.8 -85.8)" opacity="0.5">
            <path id="Path-3" data-name="Path" d="M.221-.195c1.4.416,20.241-.39,25.4-26.286L5.889-27.5Z"/>
          </g>
          <g id="Group-2" data-name="Group" transform="translate(287.6 -317.2)" opacity="0.5">
            <path id="Path-4" data-name="Path" d="M89.5-33.332c-13.156,28.6-61.36,15.2-71.812,22C13.143-8.372,6.4-6.357.234-.13l1.3-16.159,5.486-79.3,92.6.4S102.7-61.932,89.5-33.332Z" opacity="0.601"/>
          </g>
          <g id="Group-3" data-name="Group" transform="translate(2.9 -253.5)" opacity="0.5">
            <path id="Path-5" data-name="Path" d="M139.8-.533c-1.651-1.235-35.776-14.807-35.776-16.042S99.5-63.44,99.5-63.44L41.119-71.669l-24.7-13.169L6.812-104,.819-123.955,15.2-149.5l7.917-9.49,142.584-.4V-52.351S143.715-.533,141.7-.533" opacity="0.601"/>
          </g>
          <g id="Group-4" data-name="Group" transform="translate(142 -83.2)" opacity="0.5">
            <path id="Path-6" data-name="Path" d="M.273-38.454S6.318-25,7.293-24.154c.455.416,1.391,4.589,2.236,8.879a23.4,23.4,0,0,0,3.8,9.23A21.567,21.567,0,0,0,19.968-.481h0L31.447-26.7l-9.022-12.87Z"/>
          </g>
          <path id="Path-7" data-name="Path" d="M262.185-113.295l-27.2,4.225L155-115.869s-28.6-65.7-26.871-67.522c.858-.923,23.543-73.242,23.543-73.242l-1.586-59.527s-8.1-10.01-9.49-17.16c-4.355-22.542,145.184-27.937,148.85-14.547v218.4Z" fill="url(#linear-gradient-3)"/>
          <path id="Path-8" data-name="Path" d="M109.277-261.918s-17.6-7.741-8.8-19c7.5-9.581,30.433-7.527,44.2-1.3,22.893,10.4,41.028,79.859,41.028,79.859l9.893,24.05-21.469,5.947Z" opacity="0.303"/>
          <path id="Path-9" data-name="Path" d="M155.845-115.869s-26.052-2.6-32.942-19.5S94.823-248.7,94.823-248.7s-3.146-20.956,5.655-32.214c7.5-9.581,30.433-7.527,44.2-1.3,22.893,10.4,41.028,79.859,41.028,79.859l9.893,24.05L158.445-166.14,134.2-215.692Z" fill="url(#linear-gradient-4)"/>
          <path id="Path-10" data-name="Path" d="M288.211-284.141c-6.552-5.278-35.217-24.765-51.3,12.077-4.693,10.751-14.989,23.894-21.424,37.5a508.38,508.38,0,0,0-20.8,52l36.647,17.147,28.418-48.1Q294.763-278.863,288.211-284.141Z" opacity="0.297"/>
          <path id="Path-11" data-name="Path" d="M245.714-110.981c1.378-.338,45.006-6.5,52.936-13.689s6.968-71.63,6.968-71.63-6.955-81.263-13.507-86.541-35.217-24.765-51.3,12.077c-4.693,10.751-14.989,23.894-21.424,37.505a508.376,508.376,0,0,0-20.8,52l36.647,17.147,28.418-48.1-5.2,69.069Z" fill="url(#linear-gradient-5)"/>
          <path id="Path-12" data-name="Path" d="M153.05-67.111c-8.372,20.709,7.23,47.9,26.962,52.915l1.95.494c21.45,4.16,36.959-11.7,40.521-33.267q5.485-35.43,9.626-52.643,1.938-8.054,8.613-23.16c.343-1.441-5.283-12.568-6.422-13.516l-34.6-15.835L187.37-125.879s-24.076-.949-29.51,19.279C155.182-96.772,161.422-87.821,153.05-67.111Z" fill="#ffbe9d"/>
          <path id="Combined-Shape" d="M180.35,0a5.851,5.851,0,0,0,5.82-5.251A11,11,0,0,0,193.35-2.6,11,11,0,0,0,198.8-4.035,5.842,5.842,0,0,0,203.75-1.3a5.85,5.85,0,0,0,5.85-5.85,5.833,5.833,0,0,0-.431-2.209,11,11,0,0,0,2.381.259A11.05,11.05,0,0,0,222.6-20.15a11.043,11.043,0,0,0-.523-3.371A8.451,8.451,0,0,0,229.1-31.85a8.411,8.411,0,0,0-1.455-4.742A8.451,8.451,0,0,0,234.3-44.85a8.425,8.425,0,0,0-2.583-6.081A8.452,8.452,0,0,0,238.2-59.15a8.45,8.45,0,0,0-8.45-8.45,8.453,8.453,0,0,0-7.949,5.576A8.4,8.4,0,0,0,216.75-63.7a8.45,8.45,0,0,0-8.45,8.45,8.447,8.447,0,0,0,4.208,7.31,8.452,8.452,0,0,0-6.808,8.29,8.424,8.424,0,0,0,.648,3.25,8.433,8.433,0,0,0-6.5,3.051,8.429,8.429,0,0,0-6.5-3.051,8.435,8.435,0,0,0-6.662,3.252A11.034,11.034,0,0,0,177.75-37.7a11,11,0,0,0-5.7,1.584,8.477,8.477,0,0,0-1.777-2.134,11.09,11.09,0,0,0,.332-2.7A11.05,11.05,0,0,0,159.55-52a11,11,0,0,0-6.39,2.034,11.016,11.016,0,0,0-7.293-3.317A5.852,5.852,0,0,0,140.05-58.5a5.85,5.85,0,0,0-5.85,5.85,5.834,5.834,0,0,0,1.854,4.273A10.99,10.99,0,0,0,134.2-42.25a11,11,0,0,0,1.854,6.128A5.833,5.833,0,0,0,134.2-31.85,5.85,5.85,0,0,0,140.05-26,5.84,5.84,0,0,0,142-26.335,11.049,11.049,0,0,0,153.05-15.6a11.019,11.019,0,0,0,4.127-.8,8.477,8.477,0,0,0,2.139,2.719,8.437,8.437,0,0,0-.417,2.628,8.45,8.45,0,0,0,8.45,8.45,8.445,8.445,0,0,0,7.2-4.028,5.765,5.765,0,0,0-.052.778A5.85,5.85,0,0,0,180.35,0Z" fill-rule="evenodd" fill="url(#linear-gradient-6)"/>
          <path id="Path-13" data-name="Path" d="M187.149-125.84a50.765,50.765,0,0,1,24.609,14.573s-2.522-16.211-23.244-19.5Z" fill="#eb996e"/>
          <path id="Path-14" data-name="Path" d="M170.691-70.629c-.4.351-2.5-1.547-5.707-1.859s-5.707,1.066-6.019.637c-.156-.195.3-.858,1.391-1.5a8.151,8.151,0,0,1,4.875-.988,7.878,7.878,0,0,1,4.485,1.95C170.6-71.5,170.886-70.785,170.691-70.629Z" fill="#263238"/>
          <path id="Path-15" data-name="Path" d="M201.319-67.132c-.468.26-2.145-2-5.2-2.938s-5.811-.091-6.032-.572c-.117-.221.455-.78,1.664-1.2a8.2,8.2,0,0,1,4.966,0,7.9,7.9,0,0,1,4.017,2.808C201.423-68.016,201.54-67.249,201.319-67.132Z" fill="#263238"/>
          <path id="Path-16" data-name="Path" d="M184.263-89.44c0,.182-4.836,26.325-5.161,26.364s-1.56-7.618-2.6-17.082c-.247-2.34-.481-4.563-.7-6.682a4.784,4.784,0,0,1,.39-3.237,2.106,2.106,0,0,1,1.612-.832,5.4,5.4,0,0,1,1.391.156C182.3-90.116,184.289-89.622,184.263-89.44Z" fill="#263238" opacity="0.285"/>
          <path id="Path-17" data-name="Path" d="M190.072-95.68c0,.064,4.062,6.225,3.274,10.433-.318,1.7-2.335,4.887-2.6,7.19-.5,4.278-2.655,10.587-4.543,13.27-1.75,2.487-7.019,1.7-7.1,1.71-.325.039-1.56-7.618-2.6-17.082-.247-2.34-.481-4.563-.7-6.682a4.784,4.784,0,0,1,.39-3.237,2.106,2.106,0,0,1,1.612-.832c.468-.009.845-2.3,1.3-2.183C182.209-92.455,190.1-95.862,190.072-95.68Z" fill="#ffbe9d"/>
          <path id="Path-18" data-name="Path" d="M221.3-60.689c.312.234,12.909,7.683,16-6.305S225.72-81.216,225.6-80.826,221.3-60.689,221.3-60.689Z" fill="#ffbe9d"/>
          <path id="Path-19" data-name="Path" d="M174.825-89.466s-3.965,4.121-7.488,0-3.133-14.092,3.549-24.219,4.03-48.191,4.03-48.191l39.52,14.768,2.717-12.116A41.444,41.444,0,0,1,230.4-147.108c5.07,7.7-2.6,17.524-4.186,23.673s-15.86,15.951-20.046,22.386S191.569-81.484,174.825-89.466Z" fill="#fafafa"/>
          <path id="Path-20" data-name="Path" d="M204.073-179.4s-10.1,21.7-11.509,25.676-7.373,17.264-6.605,19.866,4.23,0,4.23,0-7.031,13.664-4.88,16.563a2.42,2.42,0,0,0,1.831,1.061,2.415,2.415,0,0,0,1.962-.788s-4.4,7.866-.674,10.23c1.926,1.188,5.187-3.565,5.187-3.565s3.084,3.422,5.908-.891,14.463-23.573,14.463-23.573-.685,9.125.957,14.626c1.111,3.707,6.475,5.81,6.794-5.454.213-7.3,8.661-41.586,8.661-41.586Z" fill="#ffbe9d"/>
          <path id="Path-21" data-name="Path" d="M174.1-110.838a3.471,3.471,0,0,1-3.978,1.638c-3.5-.962-9.386-2.756-11-4.212-2.34-2.106-7.4-7.683-7.384-11.44,0-1.144-1.157-3.224-1.56-5.2a11.57,11.57,0,0,1,0-3.9,11.375,11.375,0,0,1,3.263-4.758c1.495-1.3,7.241-14.963,7.241-14.963l3.354-13.7,15.184-5.33,12.506-4.277-6.5,18.616-10.231-3.588,1.04,23.816,2.99,5.642-.819,3.575-2.457.767a3.016,3.016,0,0,1,.416,4.147l-2.132,1.807c2.6.975,3.757,2.7,2.379,5.655a4.589,4.589,0,0,1-3.822.871A5.2,5.2,0,0,1,174.1-110.838Z" fill="#ffbe9d"/>
          <path id="Path-22" data-name="Path" d="M177.542-104.975a3.614,3.614,0,0,0-2.054.1,8.294,8.294,0,0,0-4.238,2.6,8.151,8.151,0,0,0-1.963,4.55,3.484,3.484,0,0,0,.182,2.041c.1,0,0-.78.286-1.976a8.957,8.957,0,0,1,2.015-4.173,9.1,9.1,0,0,1,3.9-2.6,16.9,16.9,0,0,0,1.872-.546Z" fill="#2b2b2b" opacity="0.269"/>
          <path id="Path-23" data-name="Path" d="M199.707-97.994a5.057,5.057,0,0,0,.806-1.04c.481-.689,1.131-1.716,1.872-3.029a59.41,59.41,0,0,0,4.784-10.725,60.2,60.2,0,0,0,2.6-11.453c.182-1.5.286-2.7.312-3.549a5.2,5.2,0,0,0,0-1.3c-.117,0-.286,1.846-.767,4.8a76.049,76.049,0,0,1-2.782,11.31,77.192,77.192,0,0,1-4.563,10.712C200.591-99.632,199.616-98.059,199.707-97.994Z" fill="#2b2b2b" opacity="0.269"/>
          <path id="Path-24" data-name="Path" d="M180.129-109.278a4.849,4.849,0,0,0-2.145,0,13.819,13.819,0,0,0-8.775,5.083,4.836,4.836,0,0,0-1.079,1.846,24.374,24.374,0,0,1,5.33-4.641,24.011,24.011,0,0,1,6.669-2.288Z" fill="#2b2b2b" opacity="0.269"/>
          <path id="Path-25" data-name="Path" d="M216.282-426.309l44.577-20.215s12.337-4.55,15.6-3.809c3.627.832,9.529,3.068,7.7,14.066s-22.971,24.375-22.971,24.375Z" fill="#ffbe9d"/>
          <path id="Path-26" data-name="Path" d="M210.419-391.989l-63.908-20.8c-3.822-1.3-8.346-5.317-6.994-10.4l24.96-71.89s7.7-2.457,6.266,44.2L224.9-433.043Z" fill="#ffbe9d"/>
          <path id="Path-27" data-name="Path" d="M357.5-339.4c-9.191,7.8-11.024,9.191-28.951,10.569s-47.45-2.483-47.45-2.483-55.9-17.277-82.615-14.066-51.077,18.2-51.077,18.2-63.375,1.625-72.1-.676-25.285-8.281-28.5-18.382-5.525-22.1,3.666-33.553,55.5-32.643,55.5-32.643l43.563.676,29,9.1,19.045-40.443S332.229-400.5,338.2-400.049s32.6,16.549,32.6,24.791S366.692-347.217,357.5-339.4Z" fill="url(#linear-gradient-7)"/>
          <path id="Path-28" data-name="Path" d="M394.746-387.569c-1.114,25.812-6.083,39.712-10.368,54.106-7.477,25.116-17.41,39.16-20.74,44.015-14.937,21.773-31.2,36.142-34.56,41.8Q321.383-234.7,314.64-206.1l-5.2,49.777L305.917-137.1a24.414,24.414,0,0,1-16.77,18.8L252.682-107s.741-9.022-2.3-28.743-1.95-51.883-1.95-51.883S272.923-236.34,272.884-261c0-33.54,6.968-48.711,14.963-56.8,6.175-6.227,12.922-8.255,17.472-11.206,10.4-6.812,58.656,6.6,71.8-22a117.3,117.3,0,0,0,10.4-55.224Q395.86-413.381,394.746-387.569Z" fill="url(#linear-gradient-8)"/>
          <path id="Path-29" data-name="Path" d="M155.845-84.825s-4.147-11.154-3.77-20.683c.169-4.5-2.47-8.255-5.018-11.609-3.068-4.056-8.2-9.646-13.52-18.8-1.755-3.029-1.781-7.189-3.367-11.31-2.494-6.484,11.83-31.964,7.8-54.459-6.478-36.138-30.765-74.877-26.206-92.168,7.4-28.054-3.692-35.1-3.692-35.1s-22.542-2.6-38.636-1.3-56.94-3.627-60.866-32.63,17.043-49.4,17.043-49.4H21.555S-2.872-388.3.339-369.382c1.355,7.981,2.715,23.2,13.252,35.932C28.025-316,53.263-300.5,60.608-289.9c3.7,5.346,6.014,26.932,14.809,48.51,10.376,25.455,27.444,51.794,32.653,64.408a243.1,243.1,0,0,1,14.326,48.75q12.6,8.263,17.654,14.937t10.556,22.282Z" fill="url(#linear-gradient-9)"/>
          <g id="Group-5" data-name="Group" transform="translate(87.4 -205.4)" opacity="0.3">
            <path id="Path-30" data-name="Path" d="M47.268-.819A68.731,68.731,0,0,1,15.6-24.908,83.018,83.018,0,0,1,.767-62.049C.442-64.3.65-67.249,2.821-67.925A3.419,3.419,0,0,1,6.448-66.2a10.881,10.881,0,0,1,1.144,4.121A87.022,87.022,0,0,0,47.8-1.3" opacity="0.601"/>
          </g>
          <g id="Group-6" data-name="Group" transform="translate(249.9 -188.5)" opacity="0.3">
            <path id="Path-31" data-name="Path" d="M50.765-69.394c.13-3.5,1.131-6.851,1.664-10.309s2.6-7.241,6.045-7.657c2.912-.351,5.642,1.989,6.63,4.758a16.627,16.627,0,0,1,.078,8.71c-2.431,12.493-8.333,24-14.443,35.1-5.382,9.815-11.1,19.682-19.37,27.209S11.791.923.754-.923c0,0,16.458-.507,26.858-10.725S50.544-63.6,50.765-69.394Z" opacity="0.598"/>
          </g>
          <g id="Group-7" data-name="Group" transform="translate(249.9 -106.3)" opacity="0.3">
            <path id="Path-32" data-name="Path" d="M2.145-80.9C11.037-54.614,19.045-23.7,13.3-.157,23.335-11.636,25.506-29.6,21.736-43.824s-13-26.949-20.982-39.3" opacity="0.598"/>
          </g>
          <g id="Group-8" data-name="Group" transform="translate(299 -266.5)" opacity="0.3">
            <path id="Path-33" data-name="Path" d="M57.24-44.369A17.446,17.446,0,0,1,50.259-41a51.74,51.74,0,0,0-8.177,2.509,10.114,10.114,0,0,0-5.707,6.006c-.663,2.353-.065,4.849.325,7.267A44.915,44.915,0,0,1,34.347-2.028a2.041,2.041,0,0,1-.806,1.17,1.443,1.443,0,0,1-1.794-.585,4.394,4.394,0,0,1-.6-1.963c-1.209-8.619-3.9-17.238-9.269-24.1S9.218-40.079.508-39.936L.027-41.353a29.068,29.068,0,0,1,14.391-3.809c5.005-.182,10.023.325,15.028.325a75.517,75.517,0,0,0,30.628-6.5A7.8,7.8,0,0,1,57.24-44.369Z" opacity="0.598"/>
          </g>
        </g>
      </g>
    </g>
  </g>
</svg>
