<svg xmlns="http://www.w3.org/2000/svg" width="64" height="64.004" viewBox="0 0 64 64.004">
  <g id="Social_Distance_6ft" data-name="Social Distance 6ft" transform="translate(0 0.004)">
    <path id="Caminho_219" data-name="Caminho 219" d="M32,29a1,1,0,0,0-1,1v2a1,1,0,0,0,2,0V30A1,1,0,0,0,32,29Z"/>
    <path id="Caminho_220" data-name="Caminho 220" d="M32,23a1,1,0,0,0-1,1v2a1,1,0,0,0,2,0V24A1,1,0,0,0,32,23Z"/>
    <path id="Caminho_221" data-name="Caminho 221" d="M32,35a1,1,0,0,0-1,1v2a1,1,0,0,0,2,0V36A1,1,0,0,0,32,35Z"/>
    <path id="Caminho_222" data-name="Caminho 222" d="M32,41a1,1,0,0,0-1,1v2a1,1,0,0,0,2,0V42A1,1,0,0,0,32,41Z"/>
    <path id="Caminho_223" data-name="Caminho 223" d="M32,47a1,1,0,0,0-1,1v2a1,1,0,0,0,2,0V48A1,1,0,0,0,32,47Z"/>
    <path id="Caminho_224" data-name="Caminho 224" d="M32,53a1,1,0,0,0-1,1v2a1,1,0,0,0,2,0V54A1,1,0,0,0,32,53Z"/>
    <path id="Caminho_225" data-name="Caminho 225" d="M32,59a1,1,0,0,0-1,1v2a1,1,0,0,0,2,0V60A1,1,0,0,0,32,59Z"/>
    <path id="Caminho_226" data-name="Caminho 226" d="M43,17V14a2.987,2.987,0,0,0-5-2.22A2.987,2.987,0,0,0,33,14v3a1,1,0,0,0,2,0V14a1,1,0,0,1,2,0v3a1,1,0,0,0,2,0V14a1,1,0,0,1,2,0v3a1,1,0,0,0,2,0Z"/>
    <path id="Caminho_227" data-name="Caminho 227" d="M30,16H26.27a2,2,0,0,1,1-.81l1.64-.66A3.39,3.39,0,0,0,27.61,8H27a3,3,0,0,0-3,3,1,1,0,0,0,2,0,1,1,0,0,1,1-1h.61a1.38,1.38,0,0,1,.52,2.67l-1.64.66A3.93,3.93,0,0,0,24,17a1,1,0,0,0,1,1h5a1,1,0,0,0,0-2Z"/>
    <path id="Caminho_228" data-name="Caminho 228" d="M10.08,4.38a1,1,0,0,0,.21.33l3,3a1,1,0,1,0,1.42-1.42L13.41,5H50.59l-1.3,1.29a1,1,0,1,0,1.42,1.42l3-3a1.034,1.034,0,0,0,0-1.42l-3-3a1,1,0,0,0-1.42,1.42L50.59,3H13.41l1.3-1.29A1,1,0,1,0,13.29.29l-3,3a1.034,1.034,0,0,0-.21,1.09Z"/>
    <path id="Caminho_229" data-name="Caminho 229" d="M15.44,25A5.93,5.93,0,0,0,17,21V18A6,6,0,1,0,5,18v3a5.93,5.93,0,0,0,1.56,4A7,7,0,0,0,0,32V44a3,3,0,0,0,3,3,2.81,2.81,0,0,0,1-.18V59.4A4.21,4.21,0,0,0,2,63a1,1,0,0,0,1,1h7a1,1,0,0,0,1-1h0a1,1,0,0,0,1,1h7a1,1,0,0,0,1-1,4.17,4.17,0,0,0-2-3.6V46.82A2.81,2.81,0,0,0,19,47a3,3,0,0,0,3-3V32a7,7,0,0,0-6.56-7ZM7,18a4,4,0,0,1,8,0v3a4,4,0,0,1-8,0ZM20,44a.99.99,0,0,1-1.38.92h-.08A1,1,0,0,1,18,44V31a1,1,0,0,0-2,0V60a1,1,0,0,0,.54.89l.23.12a2.23,2.23,0,0,1,1,1H13L12,44a1,1,0,0,0-2,0L9.05,62H4.23a2.25,2.25,0,0,1,1-1l.21-.11A1,1,0,0,0,6,60V31a1,1,0,0,0-2,0V44a1,1,0,0,1-.54.88H3.38A1,1,0,0,1,3,45a1,1,0,0,1-1-1V32a5,5,0,0,1,5-5h8a5,5,0,0,1,5,5Z"/>
    <path id="Caminho_230" data-name="Caminho 230" d="M57.44,25A5.93,5.93,0,0,0,59,21V18a6,6,0,1,0-12,0v3a5.93,5.93,0,0,0,1.56,4A7,7,0,0,0,42,32V44a3,3,0,0,0,3,3,2.81,2.81,0,0,0,1-.18V59.4A4.21,4.21,0,0,0,44,63a1,1,0,0,0,1,1h7a1,1,0,0,0,1-1h0a1,1,0,0,0,1,1h7a1,1,0,0,0,1-1,4.17,4.17,0,0,0-2-3.6V46.82A2.81,2.81,0,0,0,61,47a3,3,0,0,0,3-3V32a7,7,0,0,0-6.56-7ZM49,18a4,4,0,0,1,8,0v3a4,4,0,0,1-8,0ZM62,44a.99.99,0,0,1-1.38.92h-.08A1,1,0,0,1,60,44V31a1,1,0,0,0-2,0V60a1,1,0,0,0,.54.89l.23.12a2.23,2.23,0,0,1,1,1H55L54,44a1,1,0,0,0-2,0L51,62H46.23a2.25,2.25,0,0,1,1-1l.21-.11A1,1,0,0,0,48,60V31a1,1,0,0,0-2,0V44a1,1,0,0,1-.54.88h-.08A.922.922,0,0,1,44,44V32a5,5,0,0,1,5-5h8a5,5,0,0,1,5,5Z"/>
  </g>
</svg>
