<svg xmlns="http://www.w3.org/2000/svg" width="64" height="64.005" viewBox="0 0 64 64.005">
  <g id="Stay_at_Home" data-name="Stay at Home" transform="translate(0 0.005)">
    <path id="Caminho_242" data-name="Caminho 242" d="M62.42,29.82A1,1,0,0,0,63,30a1.07,1.07,0,0,0,.46-.11A1,1,0,0,0,64,29V23a1,1,0,0,0-.42-.82l-31-22a1,1,0,0,0-1.16,0l-31,22A1,1,0,0,0,0,23v6a1,1,0,0,0,.54.89,1,1,0,0,0,1-.07L7,26V56H1a1,1,0,0,0-1,1v6a1,1,0,0,0,1,1H63a1,1,0,0,0,1-1V57a1,1,0,0,0-1-1H57V26ZM2,23.52,32,2.23,62,23.52v3.54l-5.41-3.83h0l-24-17a1,1,0,0,0-1.16,0l-24,17h0L2,27.06ZM62,62H2V58H62ZM28,32V29a4,4,0,0,1,8,0v3a4,4,0,0,1-8,0Zm0,6h8a5,5,0,0,1,5,5V53a3,3,0,0,1-2,2.82V42a1,1,0,0,0-2,0V56H27V42a1,1,0,0,0-2,0V55.82A3,3,0,0,1,23,53V43A5,5,0,0,1,28,38ZM55,56H42a4.92,4.92,0,0,0,1-3V43a7,7,0,0,0-6.56-7A5.93,5.93,0,0,0,38,32V29a6,6,0,0,0-12,0v3a5.93,5.93,0,0,0,1.56,4A7,7,0,0,0,21,43V53a4.92,4.92,0,0,0,1,3H9V24.55L32,8.23,55,24.55Z"/>
  </g>
</svg>
