<svg id="Iconly_Bulk_Edit" data-name="Iconly/Bulk/Edit" xmlns="http://www.w3.org/2000/svg" width="24" height="24" viewBox="0 0 24 24">
  <g id="Edit" transform="translate(3 3)">
    <path id="Fill_1" data-name="Fill 1" d="M6.7,0H1.007A1.017,1.017,0,0,0,0,1.023,1.016,1.016,0,0,0,1.007,2.047H6.7A1.016,1.016,0,0,0,7.709,1.023,1.017,1.017,0,0,0,6.7,0" transform="translate(10.291 15.953)" opacity="0.4"/>
    <path id="Fill_3" data-name="Fill 3" d="M7.309.067l5.4,4.36a.31.31,0,0,1,.051.429l-6.4,8.335a2.1,2.1,0,0,1-1.63.817l-3.492.043a.4.4,0,0,1-.392-.312L.052,10.289a2.137,2.137,0,0,1,.4-1.8L6.883.118A.3.3,0,0,1,7.309.067" transform="translate(0 3.837)"/>
    <path id="Fill_5" data-name="Fill 5" d="M6.977,5.665l-1.04,1.3a.3.3,0,0,1-.423.048c-1.265-1.023-4.5-3.65-5.4-4.377A.308.308,0,0,1,.069,2.2l1-1.246A2.572,2.572,0,0,1,4.85.7L6.321,1.871A3.066,3.066,0,0,1,7.464,3.623a2.406,2.406,0,0,1-.487,2.042" transform="translate(8.144 0)" opacity="0.4"/>
  </g>
</svg>
