<svg xmlns="http://www.w3.org/2000/svg" xmlns:xlink="http://www.w3.org/1999/xlink" width="122" height="100" viewBox="0 0 122 100"><defs><clipPath id="a"><path d="M14,0h94a14,14,0,0,1,14,14V86a14,14,0,0,1-14,14H14A14,14,0,0,1,0,86V14A14,14,0,0,1,14,0Z" transform="translate(218 95)" fill="#fa8d70"/></clipPath></defs><g transform="translate(-218 -95)" clip-path="url(#a)"><g transform="translate(234.938 101)"><path d="M241.723,339.557c-.451-1.753-2.9-2.39-4.441-1.432a5.568,5.568,0,0,0-1.272,7.058c1.007,1.557,3.029,2.149,4.883,2.132q.747,10.964.676,21.962a11.39,11.39,0,0,0,11.522,2.056,5.992,5.992,0,0,0,2.793-2.011c1.6-2.3-.2-7.174,2.464-8.435,1.133-.535,2.968-.1,4.217-.416a7.538,7.538,0,0,0,4.387-2.8c3.916-5.49,3.183-13.35,3.038-19.647a65.848,65.848,0,0,1,.413-9.041c.3-2.594.7-5.432-.7-7.636-1.771-2.794-5.569-3.305-8.872-3.486-5.458-.3-11.445-.3-15.705,3.127a11.794,11.794,0,0,0-4.32,9.595,3.2,3.2,0,0,1-.489,2.5Z" transform="translate(-210.354 -309.231)" fill="#fff"/><path d="M251.223,325.768c4.518,3.079,9.814,6.181,15.13,4.9q-.749,7.755-1.5,15.512c-4.812-.232-9.839-.424-14.218,1.582a2.128,2.128,0,0,0-1.095.867,2.268,2.268,0,0,0-.118,1.211q.44,5.03,1.186,10.027a24.876,24.876,0,0,1-4.89-.314,8.252,8.252,0,0,0,4.648,3.809,1.873,1.873,0,0,1,1.142.661,1.682,1.682,0,0,1,.112,1.021q-.4,3.913-.789,7.827c2.474,1.032,5.387-.834,6.466-3.288s.826-5.26.551-7.927c2.67-.171,5.429-.493,7.726-1.866,2.823-1.687,3.054-3.1,3.835-6.3s2.227-8.2,2.148-11.492q-.245-10.145-.492-20.291l-1.455.185Z" transform="translate(-211.564 -309.69)" fill="#f5f4e3"/><path d="M252.719,364.247c-.659-.164-.6-4.152-.307-4.738,1.116-2.257,4.145-.938,6.176-1.236a6.352,6.352,0,0,0,3.261-1.3,6.793,6.793,0,0,0,1.712-2.6,17.525,17.525,0,0,0,1.237-4.682,6.4,6.4,0,0,0,3.546.8,3.261,3.261,0,0,1,1.729.118c.842.436.942,1.58.919,2.527a17.644,17.644,0,0,1-.7,5.241,9.811,9.811,0,0,1-7.3,6.367c-2.576.494-5.236-.08-7.852.1Z" transform="translate(-212.315 -312.929)" fill="#f5f4e3"/><path d="M207.405,410.277c.69-2.689,1.451-6.577,2.387-9.765,1.469-5.008,3.6-10.186,7.439-13.524,6.158-5.351,15.286-6.569,20.879-12.508a9.331,9.331,0,0,0,8.659,4.557,9.651,9.651,0,0,0,7.8-5.823c2.269,3.1,6.188,3.656,9.714,4.46a18.992,18.992,0,0,1,9.76,6.174c5.774,6.538,6.4,15.164,11.791,21.913a38.032,38.032,0,0,1,4.118,5.426,1.652,1.652,0,0,1,.268,1.2,1.681,1.681,0,0,1-.627.781c-3.219,2.6-7.261,3.913-11.211,5.145-13.687,4.269-28.3,8.249-42.172,4.628-6.129-1.6-11.777-4.616-17.361-7.605Z" transform="translate(-207.093 -315.652)" fill="#ffdf77"/><path d="M215.557,420.154l4.656-12.287a18.288,18.288,0,0,1,2.806-5.456,1.35,1.35,0,0,1,.943-.592c.545,0,.885.576,1.1,1.077a49.868,49.868,0,0,1,3.621,15.687c.163,2.037.141,4.339-1.3,5.789a6.03,6.03,0,0,1-4.807,1.327,36.276,36.276,0,0,0-5.12-.472Z" transform="translate(-208.073 -318.963)" fill="#ffda60"/><path d="M252.879,379.088c.3,2.743,3.817,3.772,5.344,6.071a8.906,8.906,0,0,1,1.15,3.835c1.3,9.937.516,20.021,1.006,30.03a12.18,12.18,0,0,0,1.233,5.606c3.661,1,7.581.376,11.206-.747s7.092-2.73,10.749-3.74c.711-.2,1.545-.478,1.743-1.189a2.23,2.23,0,0,0-.256-1.4c-1.865-4.568-1.98-9.624-2.5-14.531s-1.586-10.04-4.887-13.707c-2.651-2.943-6.411-4.576-9.941-6.375s-7.121-4.031-8.874-7.582a6.053,6.053,0,0,1-4.878,3.683Z" transform="translate(-212.393 -315.9)" fill="#ffda60"/><path d="M235.218,329.136a20.476,20.476,0,0,0,1.119,4.115,20.818,20.818,0,0,0,.855,1.922c.222.436.86,1.151.744,1.669-1.6-.083-2.755,2.468-2.936,3.725a5.593,5.593,0,0,0,2.043,5.226,3.818,3.818,0,0,0,2,.73,19.258,19.258,0,0,1,1.849,8.354c-.034,1.254-.053,2.509-.047,3.77q.012,2.231.124,4.458a14.578,14.578,0,0,1,.189,2.572c-.133,1.028-.959,1.471-1.727,2.055a2.073,2.073,0,0,0-.287.231c-.08.086-.148.184-.22.275a.318.318,0,0,0-.025.411.314.314,0,0,0,.4.081l.285-.161a1.508,1.508,0,0,0,.283-.237c.159-.153.318-.3.476-.461l.664-.654a9.306,9.306,0,0,0,8.654,5.089,9.65,9.65,0,0,0,8.243-5.914c.225-.534-.713-.935-.943-.4-.065.152-.153.292-.227.439a17.611,17.611,0,0,0-.051-3.33c-.039-.867-.116-1.707-.215-2.549,3.006.038,6.065-.329,8.583-2.121a11.6,11.6,0,0,0,4.344-7.779,48.672,48.672,0,0,0,.559-6.356c.059-1.594.089-3.189.169-4.783.063-1.247.116-2.494.15-3.741a9.165,9.165,0,0,1,0-1.685c.111-.448.526-.759.74-1.16a6.558,6.558,0,0,0,.465-1.7c.155-.73.271-1.466.364-2.205a16.294,16.294,0,0,0,.146-2.176,3.489,3.489,0,0,0-.421-2.23,3.379,3.379,0,0,0,1.288-1.449,9.48,9.48,0,0,0,.522-4.095,6.718,6.718,0,0,0-.331-1.838,11.556,11.556,0,0,0-5.093-6.9c-.127-.081-.259-.149-.389-.226-.027-.017-.058-.032-.085-.049q-.394-.227-.8-.425c-.023-.01-.042-.025-.065-.034s-.024-.008-.035-.013c-4.549-2.177-10.081-1.64-14.806-.3-4.3,1.225-8.673,3.856-10.224,8.04-.057.1-.115.194-.164.294a5.63,5.63,0,0,0-.583.044,7.426,7.426,0,0,0-6.326,4.794,8.821,8.821,0,0,0,.448,5.92C235.027,328.633,235.124,328.884,235.218,329.136Zm34.064,7.429c-.134,3.105-.268,6.218-.456,9.322-1.553-.33-2.979-1.108-4.5-1.561a16.315,16.315,0,0,0-5.67-.581,26.324,26.324,0,0,0-5.541,1.026c-.955.272-1.9.577-2.839.9a5.712,5.712,0,0,0-2.09.915c-1.174-1.484-2.34-2.977-3.465-4.5q-.909-1.228-1.784-2.481c-.2-.28-.387-.563-.58-.844a.537.537,0,0,0,.039-.172,55.853,55.853,0,0,0-.462-10.461,6.123,6.123,0,0,0,4.5-2.881,3.643,3.643,0,0,0,.38-.862,22.4,22.4,0,0,0,4.755,1.507,41.806,41.806,0,0,0,8.239.892c2.7.065,5.769.363,8.394-.4a6.6,6.6,0,0,0,1.02-.4A88.619,88.619,0,0,1,269.281,336.565Zm.569-10.927v0Zm-33.928,15.053a3.5,3.5,0,0,1,2.329-2.979,2.919,2.919,0,0,1,2.763.588c.091.167.213.33.335.517q.427.659.865,1.312.9,1.344,1.841,2.661c1.226,1.717,2.5,3.387,3.866,5a.432.432,0,0,0,.2.136,28.367,28.367,0,0,0,.017,5.967,22.465,22.465,0,0,0,.609,3.173,50.906,50.906,0,0,1-4.043-3.991c-.985-1.138-1.881-2.368-2.762-3.567a.869.869,0,0,1-.11-.526c.007-1.257.073-2.495.059-3.751a.435.435,0,0,0-.734-.3,2.538,2.538,0,0,1-1.58.722.439.439,0,0,0-.291.006,3.128,3.128,0,0,1-2.135-.942A4.789,4.789,0,0,1,235.923,340.692ZM255.644,366.9a.52.52,0,0,0,.63.363,8.524,8.524,0,0,1-6.725,3.96,8.893,8.893,0,0,1-7.695-4.154.26.26,0,0,0,.055-.053,2.993,2.993,0,0,0,.161-1.853q-.041-1.028-.073-2.057-.045-1.464-.088-2.928c.043-1.7.036-3.411.036-5.1,0-1.389-.016-2.778-.022-4.167a32.564,32.564,0,0,0,6.2,7.064c-.3-.143-.6-.29-.889-.462a.536.536,0,0,0-.54.924c2.669,1.619,5.994,2,9.056,2.1.031,0,.063,0,.095,0-.1.846-.177,1.688-.216,2.559A13.208,13.208,0,0,0,255.644,366.9Zm10.245-10.635a5.375,5.375,0,0,1-2.089,1.674c-3.59,1.477-7.618,1.36-11.486,1.029a3.159,3.159,0,0,1-1.98-.6,4.244,4.244,0,0,1-.657-1.8c-.276-1.037-.533-2.077-.707-3.137a24.189,24.189,0,0,1-.306-3.324,14.435,14.435,0,0,1,.164-2.977,11.03,11.03,0,0,0,1.713-.5c.887-.264,1.779-.514,2.677-.737a29.977,29.977,0,0,1,5.823-.915,14.948,14.948,0,0,1,5.661.79,31,31,0,0,0,4.055,1.364c0,.059-.006.119-.011.179C268.536,350.427,268.03,353.838,265.889,356.266Z" transform="translate(-210.224 -308.117)" fill="#372b7b"/><path d="M257.031,342.46l-.165.095h0l-.1.029a1.081,1.081,0,0,0-.3.181c.172-.123.038-.033,0-.009l-.161.088h0l-.09.029-.205.048-.107.007-.208,0-.111-.011h.022l-.217-.055-.089-.03-.013,0,0,0-.182-.091-.16-.1-.029-.025-.066-.065-.062-.068-.022-.032-.106-.195a.421.421,0,0,0-.53-.173.428.428,0,0,0-.246.5,1.991,1.991,0,0,0,1.663,1.468,2.424,2.424,0,0,0,1.216-.079,1.353,1.353,0,0,0,.714-.462,1.587,1.587,0,0,0,.2-.546.45.45,0,0,0-.158-.465A.44.44,0,0,0,257.031,342.46Z" transform="translate(-212.508 -312.044)" fill="#372b7b"/><path d="M255.839,343.031c.045.008.116,0,0,0Z" transform="translate(-212.735 -312.158)" fill="#372b7b"/><path d="M267.863,343.426a.092.092,0,0,0-.024-.029l.008.013Z" transform="translate(-214.124 -312.2)" fill="#372b7b"/><path d="M268.595,343.739l-.024,0h.016Z" transform="translate(-214.209 -312.24)" fill="#372b7b"/><path d="M269.654,342.48c-.115.125-.232.249-.355.367s-.207.235-.317.348l-.183.174-.008.009,0,0-.1.07-.108.063-.045.024-.056.019-.086.021a.1.1,0,0,1,.024,0l-.032,0h0c-.065.018-.043.007-.012,0l-.055,0-.1,0-.18-.047-.067-.034-.062-.038-.132-.13-.027-.027c.005.012,0,.009-.016-.016l-.02-.022a.046.046,0,0,1,.012.009l0,0-.017-.026,0,0-.017-.063a.446.446,0,0,0-.853,0,1.218,1.218,0,0,0,.012.622,1.159,1.159,0,0,0,.46.6,1.75,1.75,0,0,0,1.111.33,2.194,2.194,0,0,0,1.293-.571,2.372,2.372,0,0,0,.478-.522c.105-.17.193-.353.281-.531a.523.523,0,0,0-.133-.667A.515.515,0,0,0,269.654,342.48Z" transform="translate(-214.004 -312.077)" fill="#372b7b"/><path d="M255.44,336.9q.229-.068.462-.125a1,1,0,0,0,.6-.254c.187-.226.228-.666-.1-.811a.694.694,0,0,0-.494-.065l-.23.067q-.243.076-.482.164a10.517,10.517,0,0,0-1.027.443,9.867,9.867,0,0,0-1.768,1.15c-.372.3.119.942.514.666a8.411,8.411,0,0,1,2.532-1.237Z" transform="translate(-212.321 -311.301)" fill="#372b7b"/><path d="M271.279,338.293a4.556,4.556,0,0,0-2.684-.627.332.332,0,0,0,0,.664,3.963,3.963,0,0,1,.541.111c.1.03.207.063.309.1l.115.044,0,0,.073.033a3.99,3.99,0,0,1,.529.292l.233.165c-.112-.1.022.018.044.037l.12.106a.59.59,0,1,0,.715-.927Z" transform="translate(-214.174 -311.535)" fill="#372b7b"/><path d="M277.4,353.888a23.24,23.24,0,0,1,3.327-.968,3.755,3.755,0,0,0-.041,1.521c.191.828.878.972,1.619.8,1.906-.43,3.8-.886,5.707-1.328.648-.15.373-1.138-.275-1l-4.22.925-1,.22c-.167.036-.334.076-.5.111-.047.009-.2,0-.23.037a2.384,2.384,0,0,1,.035-.867,6.805,6.805,0,0,1,.224-1.028.569.569,0,0,0-.692-.691,23.359,23.359,0,0,0-4.211,1.3C276.562,353.169,276.8,354.12,277.4,353.888Z" transform="translate(-121.258 -369.019) rotate(14)" fill="#372b7b"/><path d="M277.4,353.888a23.24,23.24,0,0,1,3.327-.968,3.755,3.755,0,0,0-.041,1.521c.191.828.878.972,1.619.8,1.906-.43,3.8-.886,5.707-1.328.648-.15.373-1.138-.275-1l-4.22.925-1,.22c-.167.036-.334.076-.5.111-.047.009-.2,0-.23.037a2.384,2.384,0,0,1,.035-.867,6.805,6.805,0,0,1,.224-1.028.569.569,0,0,0-.692-.691,23.359,23.359,0,0,0-4.211,1.3C276.562,353.169,276.8,354.12,277.4,353.888Z" transform="translate(-301.642 -226.565) rotate(-16)" fill="#372b7b"/><path d="M280.739,363.544a1.212,1.212,0,0,0,1,1.185,3.235,3.235,0,0,0,.984-.054l1.192-.153,2.232-.285a.643.643,0,1,0-.172-1.268c-1.255.169-2.51.371-3.77.508-.118.012-.264-.036-.213.067a1.4,1.4,0,0,1,.021-.551,2.453,2.453,0,0,0-.168-1.328.616.616,0,0,0-.687-.279q-.794.17-1.588.341l-.722.155-.092.014a.493.493,0,0,0-.342-.122.605.605,0,0,0-.42.978c.353.516,1.1.256,1.6.163l1.216-.229c-.01.074-.021.152-.027.21A3.7,3.7,0,0,0,280.739,363.544Z" transform="matrix(0.883, 0.469, -0.469, 0.883, -13.793, -404.325)" fill="#372b7b"/><path d="M287.621,410.405c-3.359-6.011-5.112-12.769-8.078-18.966-2.639-5.514-6.812-11.7-13.174-13.213-1.7-.4-3.453-.518-5.16-.876a11.054,11.054,0,0,1-2.5-.764,3.971,3.971,0,0,1-1.852-1.909.266.266,0,0,0-.484.046l-.126-.073-.085-.06-.006,0-.048-.041-.165-.16-.083-.1-.008-.009-.029-.041-.123-.2-.057-.111-.009-.019.007.018-.023-.058a.314.314,0,1,0-.6.166,2.429,2.429,0,0,0,1.089,1.347.341.341,0,0,0-.171.172c-4.027,9.077-15.051,9.094-20,1.021a.14.14,0,0,0-.043-.071c-.062-.1-.128-.2-.188-.307-.109-.191-.444-.064-.364.153.039.1.084.2.125.3a95.114,95.114,0,0,1-9.483,4.921c-3.2,1.516-6.619,2.963-9.441,5.131a18.892,18.892,0,0,0-5.5,7.245c-1.444,3.174-3.833,13.289-4.287,16.749-.081.621.875.69,1.05.143,1.081-3.38,2.887-13.388,4.405-16.637a17.077,17.077,0,0,1,5.956-7.269c5.642-3.646,11.976-6,17.423-9.983,4.067,9.45,17.625,8.451,21.159-1.054a.352.352,0,0,0-.009-.264,4,4,0,0,0,2.222,1.9,22.684,22.684,0,0,0,4.67,1.063,16.085,16.085,0,0,1,4.179,1.056,16.931,16.931,0,0,1,4.328,2.828c5.267,4.715,7.782,11.763,10.27,18.178a77.684,77.684,0,0,0,4.488,10.172A.425.425,0,0,0,287.621,410.405Z" transform="translate(-207.204 -315.701)" fill="#372b7b"/><path d="M239.851,347.249a.611.611,0,0,0,.821-.4,1.343,1.343,0,0,0,.091-.454,3,3,0,0,1,0-.346,2.8,2.8,0,0,0-.057-.763A1.82,1.82,0,0,0,240,344.15a1.372,1.372,0,0,0-1.18-.24,1.126,1.126,0,0,0-.719.728.923.923,0,0,0,.227,1.006.184.184,0,0,0,.261-.26.5.5,0,0,1-.068-.541.7.7,0,0,1,.172-.248.465.465,0,0,1,.235-.13.748.748,0,0,1,.645.209l.076.077.038.04.123.2.024.049,0-.006.034.106.031.128.011.065v.175l-.005.065,0,.044v-.008c-.022.1-.041.2-.07.3l-.02.064v0l-.039.053.011-.013a1.707,1.707,0,0,0-.217.372A.612.612,0,0,0,239.851,347.249Z" transform="translate(-210.675 -312.254)" fill="#372b7b"/><path d="M278.763,407.354c-.658-4.653-1.076-9.357-1.889-13.986-.022-.125-.218-.093-.218.029A123.876,123.876,0,0,0,277.9,407.47q.406,3.289.875,6.568c.325,2.275.406,4.933,1.258,7.076a.389.389,0,0,0,.76-.1c.081-2.137-.608-4.442-.951-6.549Q279.267,410.912,278.763,407.354Z" transform="translate(-215.145 -317.975)" fill="#372b7b"/><path d="M225.771,404.114a19.46,19.46,0,0,0-.27,3.9c-.074,1.333-.16,2.667-.25,4q-.283,4.166-.872,8.3c-.1.675.94.961,1.031.284.371-2.746.654-5.5.829-8.267.088-1.387.134-2.77.14-4.159a15.481,15.481,0,0,0-.182-4.063A.223.223,0,0,0,225.771,404.114Z" transform="translate(-209.093 -319.21)" fill="#372b7b"/><path d="M263.954,354.674c-.608-.029-1.219-.035-1.827-.034-1.244,0-2.487.056-3.728.149-.632.048-.648,1.013,0,1q1.826-.05,3.655.034c.585.027,1.169.069,1.753.108a5.423,5.423,0,0,0,1.892.016.541.541,0,0,0,.128-.977A4.522,4.522,0,0,0,263.954,354.674Z" transform="translate(-212.976 -313.502)" fill="#372b7b"/><path d="M264.5,360.3a15.528,15.528,0,0,1-7.595.1.387.387,0,0,0-.206.746,14.2,14.2,0,0,0,8.115.3A.591.591,0,0,0,264.5,360.3Z" transform="translate(-212.803 -314.154)" fill="#372b7b"/><path d="M249,316.6a20.574,20.574,0,0,1,5.916-3.151c2.262-.718,4.374-.457,6.659-.689a1.023,1.023,0,0,0,.271-2c-4.669-1.613-10.683,1.226-13.7,4.727C247.659,316.051,248.317,317.112,249,316.6Z" transform="translate(-211.826 -308.369)" fill="#fff"/><path d="M268.743,314.061a1.55,1.55,0,0,0,0-3.1A1.55,1.55,0,0,0,268.743,314.061Z" transform="translate(-214.056 -308.446)" fill="#fff"/></g></g></svg>