<svg xmlns="http://www.w3.org/2000/svg" width="32" height="32" viewBox="0 0 32 32">
  <g id="world" transform="translate(-709 -724)">
    <g id="_3_User" data-name="3 User" transform="translate(716 733)">
      <path id="Fill_1" data-name="Fill 1" d="M5.447,0C2.493,0,0,.483,0,2.346s2.509,2.33,5.447,2.33c2.954,0,5.447-.483,5.447-2.346S8.385,0,5.447,0" transform="translate(3.929 9.026)" fill="#0e3360"/>
      <path id="Fill_3" data-name="Fill 3" d="M3.6,7.25a3.6,3.6,0,0,0,3.6-3.625A3.6,3.6,0,1,0,0,3.625,3.6,3.6,0,0,0,3.6,7.25" transform="translate(5.771 0)" fill="#0e3360" opacity="0.64"/>
      <path id="Fill_6" data-name="Fill 6" d="M3.618,3.864A3.061,3.061,0,0,0,.686,0,3.072,3.072,0,0,0,.079.062.116.116,0,0,0,.008.1.089.089,0,0,0,.023.2,4.973,4.973,0,0,1,.937,3.085,4.934,4.934,0,0,1,.094,5.861a.136.136,0,0,0,.091.209A2.811,2.811,0,0,0,.6,6.11,3.008,3.008,0,0,0,3.618,3.864" transform="translate(13.583 0.605)" fill="#0e3360" opacity="0.64"/>
      <path id="Fill_8" data-name="Fill 8" d="M4.63,1.361A2.359,2.359,0,0,0,2.805.245,13.32,13.32,0,0,0,.028,0,.032.032,0,0,0,0,.023.039.039,0,0,0,.025.064,3.811,3.811,0,0,1,2.3,3.816a.155.155,0,0,0,.173.176c.494-.071,1.764-.345,2.158-1.2a1.646,1.646,0,0,0,0-1.43" transform="translate(14.046 7.901)" fill="#0e3360"/>
      <path id="Fill_11" data-name="Fill 11" d="M3.641.062A3.009,3.009,0,0,0,3.034,0,3.06,3.06,0,0,0,.1,3.864,3.007,3.007,0,0,0,3.121,6.11a2.909,2.909,0,0,0,.414-.04.136.136,0,0,0,.091-.209A5,5,0,0,1,3.7.2.088.088,0,0,0,3.712.1.111.111,0,0,0,3.641.062" transform="translate(1.535 0.605)" fill="#0e3360" opacity="0.64"/>
      <path id="Fill_13" data-name="Fill 13" d="M1.988.244A2.358,2.358,0,0,0,.164,1.361a1.643,1.643,0,0,0,0,1.431c.394.854,1.665,1.13,2.158,1.2a.154.154,0,0,0,.173-.176A3.81,3.81,0,0,1,4.769.065.04.04,0,0,0,4.793.023.029.029,0,0,0,4.766,0,13.287,13.287,0,0,0,1.988.244" transform="translate(0 7.902)" fill="#0e3360"/>
    </g>
    <g id="Caminho_216" data-name="Caminho 216" transform="translate(709 724)" fill="rgba(14,51,96,0.51)">
      <path d="M 16 31.5 C 11.85980033874512 31.5 7.967410087585449 29.88772010803223 5.039840221405029 26.96015930175781 C 2.112279891967773 24.03259086608887 0.5 20.14019966125488 0.5 16 C 0.5 11.85980033874512 2.112279891967773 7.967410087585449 5.039840221405029 5.039840221405029 C 7.967410087585449 2.112279891967773 11.85980033874512 0.5 16 0.5 C 20.14019966125488 0.5 24.03259086608887 2.112279891967773 26.96015930175781 5.039840221405029 C 29.88772010803223 7.967410087585449 31.5 11.85980033874512 31.5 16 C 31.5 20.14019966125488 29.88772010803223 24.03259086608887 26.96015930175781 26.96015930175781 C 24.03259086608887 29.88772010803223 20.14019966125488 31.5 16 31.5 Z" stroke="none"/>
      <path d="M 16 1 C 11.99334907531738 1 8.226520538330078 2.560270309448242 5.393400192260742 5.393400192260742 C 2.560270309448242 8.226520538330078 1 11.99334907531738 1 16 C 1 20.00664901733398 2.560270309448242 23.77347946166992 5.393400192260742 26.60659980773926 C 8.226520538330078 29.43972969055176 11.99334907531738 31 16 31 C 20.00664901733398 31 23.77347946166992 29.43972969055176 26.60659980773926 26.60659980773926 C 29.43972969055176 23.77347946166992 31 20.00664901733398 31 16 C 31 11.99334907531738 29.43972969055176 8.226520538330078 26.60659980773926 5.393400192260742 C 23.77347946166992 2.560270309448242 20.00664901733398 1 16 1 M 16 0 C 24.8365592956543 0 32 7.163440704345703 32 16 C 32 24.8365592956543 24.8365592956543 32 16 32 C 7.163440704345703 32 0 24.8365592956543 0 16 C 0 7.163440704345703 7.163440704345703 0 16 0 Z" stroke="none" fill="#0e3360"/>
    </g>
  </g>
</svg>
